<?xml version="1.0" encoding="utf-8"?>
<!-- Generator: Adobe Illustrator 27.5.0, SVG Export Plug-In . SVG Version: 6.00 Build 0)  -->
<svg version="1.1" id="Capa_1" xmlns="http://www.w3.org/2000/svg" xmlns:xlink="http://www.w3.org/1999/xlink" x="0px" y="0px"
	 viewBox="0 0 2491 1807" style="enable-background:new 0 0 2491 1807;" xml:space="preserve">
<g>
	<rect y="0.004" style="fill:#D87845;" width="2490.578" height="1806.805"/>
	<g>
		<g>
			<g>
				<polygon style="fill:#B95D31;" points="2049.773,667.906 2049.773,899.473 2055.848,899.473 2262.359,899.473 2262.359,673.977 
					2262.359,667.906 				"/>
			</g>
			<g>
				<polygon style="fill:#B95D31;" points="1890.461,919.535 1894.117,919.535 2018.199,919.535 2018.199,748.324 2018.199,743.711 
					1890.461,743.711 				"/>
			</g>
		</g>
	</g>
	<polygon style="fill:#B95D31;" points="1913.941,602.988 1963.492,659.938 2472.871,763.453 2440.203,641.262 2355.27,599.465 	"/>
	<polygon style="fill:#B95D31;" points="598.98,495.719 739.75,547.84 758.656,1269.137 482.453,1297.066 	"/>
	<polygon style="fill:#B95D31;" points="0,76.16 0,146.449 2490.578,220.934 2490.578,90.805 	"/>
	<polygon style="fill:#B95D31;" points="1747.125,232.852 1732.133,232.852 718.074,232.852 718.074,1236.277 1732.133,1236.277 
		1732.133,1319.629 1807.66,1319.629 1807.66,232.852 	"/>
	<rect y="1269.137" style="fill:#E7DFBB;" width="2490.578" height="537.672"/>
	<rect y="1269.137" style="fill:#FFFCF4;" width="2490.578" height="13.66"/>
	<g>
		<rect y="1343.305" style="fill:#DED6AE;" width="2490.578" height="463.504"/>
		<rect y="1584.215" style="fill:#F5EDCF;" width="2490.578" height="10.855"/>
		<g>
			<rect y="1685.652" style="fill:#937D5A;" width="2490.578" height="4.375"/>
			<rect y="1690.609" style="fill:#F5EDCF;" width="2490.578" height="8.965"/>
		</g>
		<g>
			<rect y="1582.031" style="fill:#937D5A;" width="2490.578" height="4.367"/>
		</g>
		<g>
			<rect y="1494.145" style="fill:#937D5A;" width="2490.578" height="4.375"/>
			<rect y="1498.863" style="fill:#F5EDCF;" width="2490.578" height="7.641"/>
		</g>
		<g>
			<rect y="1416.758" style="fill:#937D5A;" width="2490.578" height="4.375"/>
			<rect y="1421.133" style="fill:#F5EDCF;" width="2490.578" height="5.742"/>
		</g>
	</g>
	<g>
		<polygon style="fill:#937D5A;" points="2455.168,1417.535 2490.578,1456.676 2490.578,1447.949 2463.066,1417.535 		"/>
		<polygon style="fill:#937D5A;" points="1456.461,1686.961 1443.023,1582.992 1437.121,1582.992 1450.551,1686.961 		"/>
		<polygon style="fill:#937D5A;" points="2282.906,1686.961 2360.34,1806.809 2367.313,1806.809 2289.879,1686.961 		"/>
		<polygon style="fill:#937D5A;" points="1798.441,1494.395 1768.352,1416.785 1762.066,1416.785 1792.152,1494.395 		"/>
		<polygon style="fill:#937D5A;" points="331.145,1495.859 381.289,1418.25 374.313,1418.25 324.168,1495.859 		"/>
		<polygon style="fill:#937D5A;" points="200.227,1687.691 123.262,1806.809 130.234,1806.809 207.199,1687.691 		"/>
		<polygon style="fill:#937D5A;" points="1034.113,1686.961 1018.625,1806.809 1024.535,1806.809 1040.023,1686.961 		"/>
		<polygon style="fill:#937D5A;" points="728.789,1416.051 756.992,1343.305 750.711,1343.305 722.508,1416.051 		"/>
		<polygon style="fill:#937D5A;" points="657.789,1582.992 617.199,1687.691 623.488,1687.691 664.078,1582.992 		"/>
		<polygon style="fill:#937D5A;" points="35.418,1417.516 102.551,1343.305 94.652,1343.305 27.523,1417.516 		"/>
	</g>
	<path style="opacity:0.6;fill:#C6B79A;" d="M2490.578,1343.305H0V1359c87.184,2.141,2635.016,66.547,2047.754,275.977
		C1507.156,1827.77,249.668,1757.809,0,1747.984v58.824h2490.578V1343.305z"/>
	<g>
		<g>
			<rect x="739.691" y="291.652" style="fill:#E69A64;" width="1021.094" height="912.606"/>
			<rect x="756.109" y="307.742" style="fill:#8CD7F4;" width="289.281" height="872.777"/>
			<rect x="756.109" y="307.742" style="fill:#4397B5;" width="289.281" height="86.57"/>
			<rect x="1455.207" y="307.742" style="fill:#8CD7F4;" width="289.281" height="872.777"/>
			<rect x="1455.207" y="307.742" style="fill:#4397B5;" width="289.281" height="86.57"/>
			<rect x="1067.773" y="307.742" style="fill:#8CD7F4;" width="359.875" height="872.777"/>
			<rect x="1067.773" y="307.742" style="fill:#4397B5;" width="359.875" height="86.57"/>
			<polygon style="fill:#E1F1E7;" points="756.109,1102.758 1045.391,735.031 1045.391,623.633 756.109,991.359 			"/>
			<polygon style="fill:#E1F1E7;" points="1034.523,1180.52 1045.391,1166.699 1045.391,985.68 892.117,1180.52 			"/>
			<polygon style="fill:#E1F1E7;" points="1045.391,762.883 756.109,1130.605 756.109,1180.52 760.664,1180.52 1045.391,818.578 			
				"/>
			<polygon style="fill:#E1F1E7;" points="1067.773,706.574 1381.523,307.742 1293.898,307.742 1067.773,595.18 			"/>
			<polygon style="fill:#E1F1E7;" points="1067.773,1138.246 1427.648,680.773 1427.648,499.754 1067.773,957.227 			"/>
			<polygon style="fill:#E1F1E7;" points="1067.773,790.125 1427.648,332.652 1427.648,307.742 1403.434,307.742 1067.773,734.426 
							"/>
			<polygon style="fill:#E1F1E7;" points="1455.207,645.758 1721.109,307.742 1578.699,307.742 1455.207,464.73 			"/>
			<rect x="643.266" y="241.922" style="fill:#ECB451;" width="1201.547" height="28.43"/>
			<rect x="643.266" y="253.785" style="opacity:0.6;fill:#E17725;" width="1201.547" height="16.566"/>
			<rect x="643.266" y="260.664" style="opacity:0.6;fill:#AB5925;" width="1201.547" height="9.688"/>
			<g>
				<polygon style="fill:#8E1750;" points="836.125,1319.629 713.867,1319.629 688.039,241.922 861.949,241.922 				"/>
				<polygon style="opacity:0.4;fill:#66013C;" points="751.746,241.922 732.805,241.922 745.344,1319.629 758.656,1319.629 				"/>
				<polygon style="opacity:0.4;fill:#66013C;" points="796.519,241.922 790.129,1319.629 804.648,1319.629 817.18,241.922 				"/>
				<polygon style="opacity:0.4;fill:#66013C;" points="722.477,241.922 688.039,241.922 713.867,1319.629 738.078,1319.629 				"/>
				<polygon style="opacity:0.4;fill:#66013C;" points="834.398,241.922 816.758,1319.629 836.125,1319.629 861.949,241.922 				"/>
				<polygon style="opacity:0.4;fill:#66013C;" points="781.652,1319.629 769.547,1319.629 767.25,241.922 784.465,241.922 				"/>
			</g>
			<g>
				<polygon style="fill:#8E1750;" points="1643.691,1319.629 1765.945,1319.629 1791.77,241.922 1617.859,241.922 				"/>
				<polygon style="opacity:0.4;fill:#66013C;" points="1728.066,241.922 1747.004,241.922 1734.477,1319.629 1721.16,1319.629 				
					"/>
				<polygon style="opacity:0.4;fill:#66013C;" points="1683.301,241.922 1689.695,1319.629 1675.164,1319.629 1662.637,241.922 
									"/>
				<polygon style="opacity:0.4;fill:#66013C;" points="1757.34,241.922 1791.77,241.922 1765.945,1319.629 1741.734,1319.629 				
					"/>
				<polygon style="opacity:0.4;fill:#66013C;" points="1645.414,241.922 1663.063,1319.629 1643.691,1319.629 1617.859,241.922 
									"/>
				<polygon style="opacity:0.4;fill:#66013C;" points="1698.164,1319.629 1710.27,1319.629 1712.57,241.922 1695.344,241.922 				
					"/>
			</g>
			<g>
				<path style="fill:#E8A135;" d="M667.809,274.645c0,1.43-1.164,2.582-2.59,2.582h-2.578c-1.434,0-2.586-1.152-2.586-2.582v-37.02
					c0-1.426,1.152-2.582,2.586-2.582h2.578c1.426,0,2.59,1.156,2.59,2.582V274.645z"/>
				<polygon style="fill:#E8A135;" points="649.723,270.352 632.074,282.168 632.074,230.105 649.723,241.922 				"/>
				<rect x="626.906" y="230.105" style="fill:#AB5925;" width="5.168" height="52.063"/>
			</g>
			<g>
				<path style="fill:#E8A135;" d="M1822.77,274.645c0,1.43,1.16,2.582,2.578,2.582h2.586c1.426,0,2.586-1.152,2.586-2.582v-37.02
					c0-1.426-1.16-2.582-2.586-2.582h-2.586c-1.418,0-2.578,1.156-2.578,2.582V274.645z"/>
				<polygon style="fill:#E8A135;" points="1840.844,270.352 1858.496,282.168 1858.496,230.105 1840.844,241.922 				"/>
				<rect x="1858.496" y="230.105" style="fill:#AB5925;" width="5.172" height="52.063"/>
			</g>
		</g>
	</g>
	<rect y="0.004" style="fill:#F9C0C7;" width="2490.578" height="120.086"/>
	<polygon style="fill:#DB9EAB;" points="0,32.641 2490.578,59.766 2490.578,0.004 0,0.004 	"/>
	<g>
		<g>
			<g>
				<g>
					<polygon style="fill:#3B000C;" points="1971.02,681.094 1950.078,681.094 1934.879,627.797 1934.879,591.965 1971.02,591.965 
											"/>
					<rect x="1934.879" y="591.965" style="fill:#270009;" width="36.141" height="29.707"/>
					<g>
						<g>
							<polygon style="opacity:0.3;fill:#DA8155;" points="1971.02,681.094 1971.02,621.672 1964.676,681.094 							"/>
							<polygon style="opacity:0.3;fill:#DA8155;" points="1954.332,681.094 1934.879,627.797 1950.078,681.094 							"/>
						</g>
					</g>
				</g>
				<g>
					<polygon style="fill:#3B000C;" points="2304.266,681.094 2325.207,681.094 2340.41,627.797 2340.41,591.965 2304.266,591.965 
											"/>
					<rect x="2304.266" y="591.965" style="fill:#270009;" width="36.145" height="29.707"/>
					<g>
						<g>
							<polygon style="opacity:0.3;fill:#DA8155;" points="2304.266,681.094 2304.266,621.672 2310.613,681.094 							"/>
							<polygon style="opacity:0.3;fill:#DA8155;" points="2320.949,681.094 2340.41,627.797 2325.207,681.094 							"/>
						</g>
					</g>
				</g>
			</g>
			<rect x="1890.926" y="580.938" style="fill:#AC3E2E;" width="493.438" height="22.051"/>
			<rect x="1890.926" y="595.945" style="fill:#9E2A24;" width="493.438" height="7.043"/>
			<rect x="1890.926" y="580.938" style="fill:#F8BC7E;" width="493.438" height="3.371"/>
		</g>
		<g>
			<rect x="1911.117" y="441.793" style="fill:#700E19;" width="22.52" height="139.145"/>
			<rect x="1911.117" y="441.793" style="fill:#E46B5A;" width="22.52" height="4.344"/>
			<rect x="1911.117" y="441.793" style="fill:#E46B5A;" width="2.824" height="139.145"/>
			<rect x="1911.117" y="469.594" style="fill:#EEDE35;" width="22.52" height="11.293"/>
			<rect x="1911.117" y="558.641" style="fill:#EEDE35;" width="22.52" height="5.645"/>
			<rect x="1911.117" y="547.781" style="fill:#EEDE35;" width="22.52" height="5.645"/>
		</g>
		<g>
			<rect x="1936.602" y="441.793" style="fill:#700E19;" width="22.512" height="139.145"/>
			<rect x="1936.602" y="441.793" style="fill:#E46B5A;" width="22.512" height="4.344"/>
			<rect x="1936.602" y="441.793" style="fill:#E46B5A;" width="2.82" height="139.145"/>
			<rect x="1936.602" y="469.594" style="fill:#EEDE35;" width="22.512" height="11.293"/>
			<rect x="1936.602" y="558.641" style="fill:#EEDE35;" width="22.512" height="5.645"/>
			<rect x="1936.602" y="547.781" style="fill:#EEDE35;" width="22.512" height="5.645"/>
		</g>
		<g>
			<rect x="1962.078" y="441.793" style="fill:#700E19;" width="22.516" height="139.145"/>
			<rect x="1962.078" y="441.793" style="fill:#E46B5A;" width="22.516" height="4.344"/>
			<rect x="1962.078" y="441.793" style="fill:#E46B5A;" width="2.824" height="139.145"/>
			<rect x="1962.078" y="469.594" style="fill:#EEDE35;" width="22.516" height="11.293"/>
			<rect x="1962.078" y="558.641" style="fill:#EEDE35;" width="22.516" height="5.645"/>
			<rect x="1962.078" y="547.781" style="fill:#EEDE35;" width="22.516" height="5.645"/>
		</g>
		<g>
			<rect x="1987.555" y="441.793" style="fill:#700E19;" width="22.52" height="139.145"/>
			<rect x="1987.555" y="441.793" style="fill:#E46B5A;" width="22.52" height="4.344"/>
			<rect x="1987.555" y="441.793" style="fill:#E46B5A;" width="2.828" height="139.145"/>
			<rect x="1987.555" y="469.594" style="fill:#EEDE35;" width="22.52" height="11.293"/>
			<rect x="1987.555" y="558.641" style="fill:#EEDE35;" width="22.52" height="5.645"/>
			<rect x="1987.555" y="547.781" style="fill:#EEDE35;" width="22.52" height="5.645"/>
		</g>
		<g>
			<rect x="2013.031" y="441.793" style="fill:#700E19;" width="22.523" height="139.145"/>
			<rect x="2013.031" y="441.793" style="fill:#E46B5A;" width="22.523" height="4.344"/>
			<rect x="2013.031" y="441.793" style="fill:#E46B5A;" width="2.828" height="139.145"/>
			<rect x="2013.031" y="469.594" style="fill:#EEDE35;" width="22.523" height="11.293"/>
			<rect x="2013.031" y="558.641" style="fill:#EEDE35;" width="22.523" height="5.645"/>
			<rect x="2013.031" y="547.781" style="fill:#EEDE35;" width="22.523" height="5.645"/>
		</g>
		<g>
			<rect x="2038.516" y="441.793" style="fill:#700E19;" width="22.516" height="139.145"/>
			<rect x="2038.516" y="441.793" style="fill:#E46B5A;" width="22.516" height="4.344"/>
			<rect x="2038.516" y="441.793" style="fill:#E46B5A;" width="2.828" height="139.145"/>
			<rect x="2038.516" y="469.594" style="fill:#EEDE35;" width="22.516" height="11.293"/>
			<rect x="2038.516" y="558.641" style="fill:#EEDE35;" width="22.516" height="5.645"/>
			<rect x="2038.516" y="547.781" style="fill:#EEDE35;" width="22.516" height="5.645"/>
		</g>
		<g>
			<rect x="2063.992" y="441.793" style="fill:#700E19;" width="22.523" height="139.145"/>
			<rect x="2063.992" y="441.793" style="fill:#E46B5A;" width="22.523" height="4.344"/>
			<rect x="2063.992" y="441.793" style="fill:#E46B5A;" width="2.828" height="139.145"/>
			<rect x="2063.992" y="469.594" style="fill:#EEDE35;" width="22.523" height="11.293"/>
			<rect x="2063.992" y="558.641" style="fill:#EEDE35;" width="22.523" height="5.645"/>
			<rect x="2063.992" y="547.781" style="fill:#EEDE35;" width="22.523" height="5.645"/>
		</g>
		<g>
			<rect x="2089.473" y="441.793" style="fill:#700E19;" width="22.52" height="139.145"/>
			<rect x="2089.473" y="441.793" style="fill:#E46B5A;" width="22.52" height="4.344"/>
			<rect x="2089.473" y="441.793" style="fill:#E46B5A;" width="2.824" height="139.145"/>
			<rect x="2089.473" y="469.594" style="fill:#EEDE35;" width="22.52" height="11.293"/>
			<rect x="2089.473" y="558.641" style="fill:#EEDE35;" width="22.52" height="5.645"/>
			<rect x="2089.473" y="547.781" style="fill:#EEDE35;" width="22.52" height="5.645"/>
		</g>
		<g>
			<path style="fill:#688D3C;" d="M2259.445,441.719c0,0-35.594-52.32,0.215-119.809
				C2259.66,321.91,2286.75,378.465,2259.445,441.719z"/>
			<path style="fill:#4F6B30;" d="M2243.203,461.797c0,0-48.297-40.891-31.852-115.496
				C2211.352,346.301,2252.59,393.543,2243.203,461.797z"/>
			<path style="fill:#4F6B30;" d="M2272.082,461.797c0,0,48.297-40.891,31.852-115.496
				C2303.934,346.301,2262.703,393.543,2272.082,461.797z"/>
			<path style="fill:#85BC45;" d="M2247.195,499.664c0,0-55.305-30.746-53.645-107.125
				C2193.551,392.539,2243.168,430.887,2247.195,499.664z"/>
			<path style="fill:#85BC45;" d="M2246.098,463.934c0,0-36.977-51.352-2.98-119.77
				C2243.117,344.164,2271.707,399.973,2246.098,463.934z"/>
			<path style="fill:#85BC45;" d="M2271.621,466.246c0,0,36.973-51.352,2.977-119.77
				C2274.598,346.477,2246.012,402.289,2271.621,466.246z"/>
			<path style="fill:#688D3C;" d="M2251.93,494.52c0,0-46.43-42.996-26.684-116.801
				C2225.246,377.719,2264.336,426.75,2251.93,494.52z"/>
			<path style="fill:#85BC45;" d="M2268.125,500.734c0,0,55.313-30.746,53.648-107.129
				C2321.773,393.605,2272.156,431.957,2268.125,500.734z"/>
			<path style="fill:#688D3C;" d="M2263.395,495.586c0,0,46.43-42.996,26.684-116.801
				C2290.078,378.785,2250.988,427.816,2263.395,495.586z"/>
			<path style="fill:#4F6B30;" d="M2258.457,499.664c0,0-35.551-52.348,0.309-119.809
				C2258.766,379.855,2285.813,436.434,2258.457,499.664z"/>
			<g>
				<g>
					<polygon style="fill:#C83228;" points="2217.746,490.363 2226.441,580.938 2288.883,580.938 2297.578,490.363 					"/>
					<path style="opacity:0.5;fill:#B22224;" d="M2226.441,580.938h62.441l1.832-19.051c-36.141-1.27-56.613-43.672-66.18-71.523
						h-6.789L2226.441,580.938z"/>
					<polygon style="fill:#B22224;" points="2295.488,512.117 2297.578,490.363 2217.746,490.363 2220.613,520.203 					"/>
					<path style="fill:#E14930;" d="M2304.297,503.852c0,1.707-1.375,3.086-3.082,3.086h-86.719c-1.703,0-3.086-1.379-3.086-3.086
						v-16.184c0-1.703,1.383-3.082,3.086-3.082h86.719c1.707,0,3.082,1.379,3.082,3.082V503.852z"/>
					<path style="fill:#F47649;" d="M2304.297,488.438v-0.77c0-1.703-1.375-3.082-3.082-3.082h-86.719
						c-1.703,0-3.086,1.379-3.086,3.082v0.77H2304.297z"/>
				</g>
				<polygon style="fill:#991C20;" points="2225.852,574.769 2226.441,580.938 2288.883,580.938 2289.473,574.769 				"/>
			</g>
		</g>
	</g>
	<g>
		<rect x="2031.242" y="648.5" style="fill:#753A22;" width="212.582" height="231.57"/>
		<polygon style="opacity:0.3;fill:#B06953;" points="2037.316,654.574 2243.824,654.574 2243.824,648.5 2031.242,648.5 
			2031.242,880.07 2037.316,880.07 		"/>
		<rect x="2056.293" y="675.797" style="fill:#FCC7AD;" width="162.477" height="176.977"/>
		<rect x="2056.293" y="675.797" style="fill:#FCC7AD;" width="162.477" height="176.977"/>
		<rect x="2079.25" y="704.762" style="fill:#FFFFFF;" width="115.855" height="115.859"/>
		<polygon style="fill:#5B2310;" points="2060.848,679.176 2218.77,679.176 2218.77,675.797 2056.293,675.797 2056.293,852.773 
			2060.848,852.773 		"/>
		<path style="opacity:0.4;fill:#FFFFFF;" d="M2190.988,816.082c-18.832,12.25-37.965,24.09-56.566,36.691h84.348v-54.895
			C2209.52,803.965,2200.273,810.047,2190.988,816.082z"/>
		<path style="opacity:0.4;fill:#FFFFFF;" d="M2100.676,812.023c21.059-14.969,42.824-28.797,64.25-43.188
			c17.984-12.078,35.883-24.285,53.844-36.406v-32.98c-8.527,4.883-16.523,11.059-24.617,17.32
			c-17.98,13.902-34.613,29.629-51.141,45.285c-17.152,16.254-34.555,32.109-52.207,47.777c-8.68,7.699-17.219,15.547-25.797,23.344
			c-1.289,1.168-2.703,2.344-4.16,3.527v8.129C2074.074,833.902,2086.766,821.914,2100.676,812.023z"/>
		<path style="opacity:0.4;fill:#FFFFFF;" d="M2068.148,806.164c14.492-18.254,29.762-36.129,46.629-52.258
			c16.887-16.152,34.875-31.227,53.926-44.785c13.734-9.769,28.742-21.277,44.805-28.363h-152.66v134.551
			C2063.289,812.231,2065.746,809.188,2068.148,806.164z"/>
		<g>
			<g>
				<path style="fill:#521E0E;" d="M2035.414,652.676c0,0,1.496,0.906,3.473,2.508c1.977,1.606,4.484,3.856,6.75,6.336
					c2.297,2.457,4.344,5.137,5.785,7.234c1.434,2.098,2.219,3.664,2.219,3.664s-1.504-0.902-3.477-2.504
					c-1.977-1.606-4.484-3.856-6.75-6.336c-2.297-2.457-4.332-5.145-5.777-7.238
					C2036.199,654.238,2035.414,652.676,2035.414,652.676z"/>
			</g>
			<g>
				<path style="fill:#521E0E;" d="M2240.152,652.676c0,0-0.785,1.563-2.219,3.664c-1.449,2.094-3.488,4.781-5.777,7.238
					c-2.266,2.48-4.777,4.73-6.758,6.336c-1.973,1.602-3.469,2.504-3.469,2.504s0.777-1.566,2.219-3.664s3.484-4.777,5.777-7.234
					c2.266-2.48,4.781-4.73,6.754-6.336C2238.66,653.582,2240.152,652.676,2240.152,652.676z"/>
			</g>
		</g>
		<g>
			<g>
				<path style="fill:#521E0E;" d="M2035.414,875.898c0,0,0.785-1.563,2.223-3.66c1.445-2.098,3.48-4.781,5.777-7.238
					c2.266-2.48,4.773-4.73,6.75-6.336c1.973-1.606,3.477-2.504,3.477-2.504s-0.785,1.563-2.219,3.664
					c-1.441,2.094-3.488,4.777-5.785,7.234c-2.266,2.481-4.773,4.727-6.75,6.332C2036.91,874.996,2035.414,875.898,2035.414,875.898
					z"/>
			</g>
			<g>
				<path style="fill:#521E0E;" d="M2240.152,875.898c0,0-1.492-0.902-3.473-2.508c-1.973-1.605-4.488-3.852-6.754-6.332
					c-2.293-2.457-4.336-5.141-5.777-7.234c-1.441-2.102-2.219-3.664-2.219-3.664s1.496,0.898,3.469,2.504
					c1.98,1.605,4.492,3.855,6.758,6.336c2.289,2.457,4.328,5.141,5.777,7.238C2239.367,874.336,2240.152,875.898,2240.152,875.898z
					"/>
			</g>
		</g>
	</g>
	<g>
		<rect x="1876.035" y="737.746" style="fill:#652F32;" width="127.73" height="175.824"/>
		<polygon style="opacity:0.5;fill:#8D6155;" points="1879.684,742.359 2003.766,742.359 2003.766,737.746 1876.035,737.746 
			1876.035,913.57 1879.684,913.57 		"/>
		<rect x="1891.09" y="758.465" style="fill:#FCC7AD;" width="97.621" height="134.383"/>
		<rect x="1891.09" y="758.465" style="fill:#FCC7AD;" width="97.621" height="134.383"/>
		<rect x="1915.074" y="783.691" style="fill:#FFFFFF;" width="49.227" height="80.707"/>
		<polygon style="fill:#3E141B;" points="1893.824,761.039 1988.711,761.039 1988.711,758.465 1891.09,758.465 1891.09,892.848 
			1893.824,892.848 		"/>
		<path style="opacity:0.4;fill:#FFFFFF;" d="M1972.02,864.984c-11.316,9.305-22.813,18.289-33.988,27.863h50.68V851.16
			C1983.156,855.785,1977.598,860.402,1972.02,864.984z"/>
		<path style="opacity:0.4;fill:#FFFFFF;" d="M1917.75,861.902c12.66-11.363,25.738-21.863,38.605-32.789
			c10.809-9.172,21.566-18.441,32.355-27.641V776.43c-5.125,3.711-9.926,8.395-14.793,13.152
			c-10.801,10.555-20.797,22.492-30.727,34.379c-10.309,12.344-20.762,24.383-31.371,36.277c-5.211,5.848-10.344,11.805-15.5,17.727
			c-0.77,0.887-1.621,1.781-2.496,2.676v6.176C1901.777,878.516,1909.402,869.414,1917.75,861.902z"/>
		<path style="opacity:0.4;fill:#FFFFFF;" d="M1898.207,857.457c8.711-13.863,17.887-27.434,28.016-39.68
			c10.148-12.266,20.961-23.711,32.406-34.004c8.254-7.418,17.27-16.156,26.918-21.539h-91.723v102.164
			C1895.293,862.059,1896.77,859.75,1898.207,857.457z"/>
		<g>
			<g>
				<path style="fill:#33050F;" d="M1878.539,740.918c0,0,0.949,0.742,2.18,2c1.246,1.242,2.699,3.059,4.129,4.891
					c1.313,1.914,2.605,3.844,3.406,5.414c0.824,1.551,1.242,2.683,1.242,2.683s-0.957-0.738-2.18-2
					c-1.25-1.238-2.703-3.055-4.125-4.891c-1.313-1.914-2.605-3.848-3.398-5.414
					C1878.965,742.047,1878.539,740.918,1878.539,740.918z"/>
			</g>
			<g>
				<path style="fill:#33050F;" d="M2001.559,740.918c0,0-0.418,1.129-1.246,2.684c-0.801,1.566-2.09,3.5-3.398,5.414
					c-1.43,1.832-2.871,3.652-4.129,4.891c-1.227,1.262-2.176,2-2.176,2s0.418-1.133,1.242-2.683c0.801-1.57,2.094-3.5,3.41-5.414
					c1.418-1.832,2.871-3.648,4.121-4.891C2000.609,741.66,2001.559,740.918,2001.559,740.918z"/>
			</g>
		</g>
		<g>
			<g>
				<path style="fill:#33050F;" d="M1878.539,910.398c0,0,0.426-1.125,1.254-2.676c0.793-1.57,2.086-3.504,3.398-5.418
					c1.422-1.836,2.875-3.652,4.125-4.891c1.223-1.258,2.18-2,2.18-2s-0.418,1.133-1.242,2.684c-0.801,1.57-2.094,3.5-3.406,5.414
					c-1.43,1.832-2.883,3.648-4.129,4.887C1879.488,909.656,1878.539,910.398,1878.539,910.398z"/>
			</g>
			<g>
				<path style="fill:#33050F;" d="M2001.559,910.398c0,0-0.949-0.742-2.176-2c-1.25-1.238-2.703-3.055-4.121-4.887
					c-1.316-1.914-2.609-3.844-3.41-5.414c-0.824-1.551-1.242-2.684-1.242-2.684s0.949,0.742,2.176,2
					c1.258,1.238,2.699,3.055,4.129,4.891c1.309,1.914,2.598,3.848,3.398,5.418C2001.141,909.273,2001.559,910.398,2001.559,910.398
					z"/>
			</g>
		</g>
	</g>
	<polygon style="opacity:0.4;fill:#846A4B;" points="758.656,1402.027 1669.227,1480.004 2268.125,1391.633 1849.676,1343.305 
		827.453,1346.02 	"/>
	<g>
		<g>
			<g>
				<rect x="752.676" y="1365.246" style="fill:#514239;" width="63.055" height="36.781"/>
				<rect x="752.676" y="1365.246" style="fill:#48362E;" width="63.055" height="24.699"/>
			</g>
			<g>
				<rect x="1674.844" y="1365.246" style="fill:#514239;" width="63.055" height="36.781"/>
				<rect x="1674.844" y="1365.246" style="fill:#48362E;" width="63.055" height="24.699"/>
			</g>
		</g>
		<g>
			<path style="fill:#EFE6D4;" d="M1783.344,1013.719c0,0-0.52-37.832-25.746-45.715c-25.219-7.879-143.445-69.352-163.941-69.352
				c-18.43,0-678.305,0-696.746,0c-20.488,0-138.715,61.473-163.938,69.352c-25.219,7.883-25.746,45.715-25.746,45.715
				l60.426,329.457l477.637-21.855l477.633,21.855L1783.344,1013.719z"/>
			<path style="fill:#EFE6D4;" d="M1587.281,940.613c8.117,9.863,2.895,17.934-11.629,17.934H915.516
				c-14.516,0-19.742-8.07-11.621-17.934l41.434-38.742c7.875-9.867,25.836-11.629,39.906-11.629h520.703
				c14.074,0,32.027,1.762,39.91,11.629L1587.281,940.613z"/>
			<rect x="806.012" y="1232.836" style="fill:#6D593A;" width="880.656" height="53.59"/>
			<polygon style="fill:#907F5D;" points="806.012,1020.148 915.516,958.547 900.066,1204.465 789.328,1297.066 			"/>
			<polygon style="fill:#907F5D;" points="1684.563,1013.719 1576.84,961.18 1590.117,1220.742 1700.855,1298.445 			"/>
			<path style="fill:#C3BA9A;" d="M1589.715,1097.266c0,10.445-8.223,18.922-18.367,18.922H918.434
				c-10.141,0-18.367-8.477-18.367-18.922V953.027c0-10.441,8.227-18.91,18.367-18.91h652.914c10.145,0,18.367,8.469,18.367,18.91
				V1097.266z"/>
			<path style="fill:#B6AB89;" d="M1589.715,1097.266V973.094c-127.387,82.426-251.27,91.613-359.43,80.996
				c-194.059-19.035-277.051-80.281-311.141-119.973h-0.711c-10.141,0-18.367,8.469-18.367,18.91v144.238
				c0,10.445,8.227,18.922,18.367,18.922h652.914C1581.492,1116.188,1589.715,1107.711,1589.715,1097.266z"/>
			<path style="fill:#EFE6D4;" d="M1664.508,1167.281c10.016,14.383,3.574,26.141-14.328,26.141H836.191
				c-17.902,0-24.352-11.758-14.328-26.141l51.082-56.484c9.719-14.375,31.856-26.145,49.211-26.145h642.059
				c17.355,0,39.492,11.77,49.211,26.145L1664.508,1167.281z"/>
			<path style="fill:#C3BA9A;" d="M806.012,1363.141c0,10.449-8.473,18.922-18.918,18.922h-60.953
				c-10.449,0-18.914-8.473-18.914-18.922v-349.422c0-10.453,8.465-18.91,18.914-18.91h60.953c10.445,0,18.918,8.457,18.918,18.91
				V1363.141z"/>
			<path style="fill:#E0D7BC;" d="M724.039,1038.945c0-10.453,8.465-18.918,18.918-18.918h60.953c0.707,0,1.41,0.039,2.102,0.121
				v-6.43c0-10.453-8.473-18.91-18.918-18.91h-60.953c-10.449,0-18.914,8.457-18.914,18.91v349.422
				c0,9.734,7.355,17.75,16.813,18.797V1038.945z"/>
			<path style="fill:#C3BA9A;" d="M1783.344,1363.141c0,10.449-8.465,18.922-18.914,18.922h-60.949
				c-10.445,0-18.918-8.473-18.918-18.922v-349.422c0-10.453,8.473-18.91,18.918-18.91h60.949c10.449,0,18.914,8.457,18.914,18.91
				V1363.141z"/>
			<path style="fill:#E0D7BC;" d="M1764.43,994.809h-60.949c-10.445,0-18.918,8.457-18.918,18.91h56.75
				c10.445,0,18.918,8.473,18.918,18.922v349.422h4.199c10.449,0,18.914-8.473,18.914-18.922v-349.422
				C1783.344,1003.266,1774.879,994.809,1764.43,994.809z"/>
			<rect x="756.617" y="1283.277" style="fill:#C3BA9A;" width="967.879" height="98.785"/>
			<rect x="809.16" y="1344.75" style="fill:#A29371;" width="869.094" height="37.313"/>
			<rect x="807.059" y="1283.277" style="fill:#907F5D;" width="10.078" height="98.785"/>
			<rect x="1674.055" y="1283.277" style="fill:#907F5D;" width="10.074" height="98.785"/>
			<path style="fill:#B6AB86;" d="M1669.852,1255.949c0,10.453-8.465,18.918-18.91,18.918H835.434
				c-10.441,0-18.918-8.465-18.918-18.918v-70.41c0-10.441,8.477-18.914,18.918-18.914h815.508c10.445,0,18.91,8.473,18.91,18.914
				V1255.949z"/>
			<path style="fill:#EFE6D4;" d="M1669.227,1180.816c-2.094-8.156-9.477-14.191-18.285-14.191H835.434
				c-8.809,0-16.195,6.035-18.297,14.191H1669.227z"/>
			<path style="fill:#A29371;" d="M816.516,1254.902v1.047c0,10.453,8.477,18.918,18.918,18.918h815.508
				c10.445,0,18.91-8.465,18.91-18.918v-1.047H816.516z"/>
		</g>
	</g>
	<polygon style="opacity:0.4;fill:#846A4B;" points="102.543,1391.633 393.984,1457.055 738.078,1402.027 593.641,1365.246 	"/>
	<g>
		<g>
			<rect x="102.543" y="1360.145" style="fill:#49000B;" width="498.141" height="31.488"/>
			<g>
				<rect x="85.555" y="468.023" style="fill:#AC3E2E;" width="533.203" height="27.695"/>
				<rect x="85.555" y="468.023" style="fill:#F8BC7E;" width="533.203" height="5.973"/>
				<polygon style="fill:#901D1F;" points="603.477,520.695 100.836,520.695 94.543,495.719 609.769,495.719 				"/>
				<polygon style="fill:#771118;" points="607.309,505.492 609.769,495.719 94.543,495.719 97.012,505.492 				"/>
				<rect x="100.836" y="520.695" style="fill:#771118;" width="503.539" height="797.09"/>
				<rect x="100.836" y="520.695" style="opacity:0.4;fill:#F8BC7E;" width="6.297" height="797.09"/>
				<rect x="598.98" y="520.695" style="fill:#5E050F;" width="5.395" height="797.09"/>
				<rect x="142.199" y="561.957" style="fill:#52729F;" width="420.813" height="575.559"/>
				<rect x="142.199" y="740.055" style="fill:#2E5274;" width="420.813" height="35.84"/>
				<g>
					<rect x="390.316" y="760.234" style="fill:#700E19;" width="16.668" height="103.031"/>
					<rect x="390.316" y="760.234" style="fill:#E46B5A;" width="16.668" height="3.219"/>
					<rect x="390.316" y="760.234" style="fill:#E46B5A;" width="2.09" height="103.031"/>
					<rect x="390.316" y="780.816" style="fill:#EEDE35;" width="16.668" height="8.363"/>
					<rect x="390.316" y="846.754" style="fill:#EEDE35;" width="16.668" height="4.184"/>
					<rect x="390.316" y="838.715" style="fill:#EEDE35;" width="16.668" height="4.18"/>
				</g>
				<g>
					<rect x="409.18" y="760.234" style="fill:#700E19;" width="16.672" height="103.031"/>
					<rect x="409.18" y="760.234" style="fill:#E46B5A;" width="16.672" height="3.219"/>
					<rect x="409.18" y="760.234" style="fill:#E46B5A;" width="2.09" height="103.031"/>
					<rect x="409.18" y="780.816" style="fill:#EEDE35;" width="16.672" height="8.363"/>
					<rect x="409.18" y="846.754" style="fill:#EEDE35;" width="16.672" height="4.184"/>
					<rect x="409.18" y="838.715" style="fill:#EEDE35;" width="16.672" height="4.18"/>
				</g>
				<g>
					<rect x="428.047" y="760.234" style="fill:#700E19;" width="16.672" height="103.031"/>
					<rect x="428.047" y="760.234" style="fill:#E46B5A;" width="16.672" height="3.219"/>
					<rect x="428.047" y="760.234" style="fill:#E46B5A;" width="2.09" height="103.031"/>
					<rect x="428.047" y="780.816" style="fill:#EEDE35;" width="16.672" height="8.363"/>
					<rect x="428.047" y="846.754" style="fill:#EEDE35;" width="16.672" height="4.184"/>
					<rect x="428.047" y="838.715" style="fill:#EEDE35;" width="16.672" height="4.18"/>
				</g>
				<g>
					<rect x="446.914" y="760.234" style="fill:#700E19;" width="16.672" height="103.031"/>
					<rect x="446.914" y="760.234" style="fill:#E46B5A;" width="16.672" height="3.219"/>
					<rect x="446.914" y="760.234" style="fill:#E46B5A;" width="2.09" height="103.031"/>
					<rect x="446.914" y="780.816" style="fill:#EEDE35;" width="16.672" height="8.363"/>
					<rect x="446.914" y="846.754" style="fill:#EEDE35;" width="16.672" height="4.184"/>
					<rect x="446.914" y="838.715" style="fill:#EEDE35;" width="16.672" height="4.18"/>
				</g>
				<g>
					<rect x="465.777" y="760.234" style="fill:#700E19;" width="16.676" height="103.031"/>
					<rect x="465.777" y="760.234" style="fill:#E46B5A;" width="16.676" height="3.219"/>
					<rect x="465.777" y="760.234" style="fill:#E46B5A;" width="2.094" height="103.031"/>
					<rect x="465.777" y="780.816" style="fill:#EEDE35;" width="16.676" height="8.363"/>
					<rect x="465.777" y="846.754" style="fill:#EEDE35;" width="16.676" height="4.184"/>
					<rect x="465.777" y="838.715" style="fill:#EEDE35;" width="16.676" height="4.18"/>
				</g>
				<g>
					<rect x="484.648" y="760.234" style="fill:#700E19;" width="16.668" height="103.031"/>
					<rect x="484.648" y="760.234" style="fill:#E46B5A;" width="16.668" height="3.219"/>
					<rect x="484.648" y="760.234" style="fill:#E46B5A;" width="2.09" height="103.031"/>
					<rect x="484.648" y="780.816" style="fill:#EEDE35;" width="16.668" height="8.363"/>
					<rect x="484.648" y="846.754" style="fill:#EEDE35;" width="16.668" height="4.184"/>
					<rect x="484.648" y="838.715" style="fill:#EEDE35;" width="16.668" height="4.18"/>
				</g>
				<g>
					<rect x="503.516" y="760.234" style="fill:#700E19;" width="16.668" height="103.031"/>
					<rect x="503.516" y="760.234" style="fill:#E46B5A;" width="16.668" height="3.219"/>
					<rect x="503.516" y="760.234" style="fill:#E46B5A;" width="2.086" height="103.031"/>
					<rect x="503.516" y="780.816" style="fill:#EEDE35;" width="16.668" height="8.363"/>
					<rect x="503.516" y="846.754" style="fill:#EEDE35;" width="16.668" height="4.184"/>
					<rect x="503.516" y="838.715" style="fill:#EEDE35;" width="16.668" height="4.18"/>
				</g>
				<g>
					<rect x="522.379" y="760.234" style="fill:#700E19;" width="16.668" height="103.031"/>
					<rect x="522.379" y="760.234" style="fill:#E46B5A;" width="16.668" height="3.219"/>
					<rect x="522.379" y="760.234" style="fill:#E46B5A;" width="2.094" height="103.031"/>
					<rect x="522.379" y="780.816" style="fill:#EEDE35;" width="16.668" height="8.363"/>
					<rect x="522.379" y="846.754" style="fill:#EEDE35;" width="16.668" height="4.184"/>
					<rect x="522.379" y="838.715" style="fill:#EEDE35;" width="16.668" height="4.18"/>
				</g>
				<rect x="142.199" y="877.926" style="fill:#2E5274;" width="420.813" height="35.84"/>
				<g>
					<g>
						<rect x="145.973" y="898.102" style="fill:#1A315A;" width="16.668" height="103.031"/>
						<rect x="145.973" y="918.688" style="fill:#EEDE35;" width="16.668" height="8.359"/>
						<rect x="145.973" y="984.621" style="fill:#EEDE35;" width="16.668" height="4.18"/>
						<rect x="145.973" y="976.582" style="fill:#EEDE35;" width="16.668" height="4.176"/>
					</g>
					<g>
						<rect x="164.84" y="898.102" style="fill:#1A315A;" width="16.672" height="103.031"/>
						<rect x="164.84" y="918.688" style="fill:#EEDE35;" width="16.672" height="8.359"/>
						<rect x="164.84" y="984.621" style="fill:#EEDE35;" width="16.672" height="4.18"/>
						<rect x="164.84" y="976.582" style="fill:#EEDE35;" width="16.672" height="4.176"/>
					</g>
					<g>
						<rect x="183.703" y="898.102" style="fill:#1A315A;" width="16.672" height="103.031"/>
						<rect x="183.703" y="918.688" style="fill:#EEDE35;" width="16.672" height="8.359"/>
						<rect x="183.703" y="984.621" style="fill:#EEDE35;" width="16.672" height="4.18"/>
						<rect x="183.703" y="976.582" style="fill:#EEDE35;" width="16.672" height="4.176"/>
					</g>
					<g>
						<rect x="202.574" y="898.102" style="fill:#1A315A;" width="16.672" height="103.031"/>
						<rect x="202.574" y="918.688" style="fill:#EEDE35;" width="16.672" height="8.359"/>
						<rect x="202.574" y="984.621" style="fill:#EEDE35;" width="16.672" height="4.18"/>
						<rect x="202.574" y="976.582" style="fill:#EEDE35;" width="16.672" height="4.176"/>
					</g>
					<g>
						<rect x="221.438" y="898.102" style="fill:#1A315A;" width="16.672" height="103.031"/>
						<rect x="221.438" y="918.688" style="fill:#EEDE35;" width="16.672" height="8.359"/>
						<rect x="221.438" y="984.621" style="fill:#EEDE35;" width="16.672" height="4.18"/>
						<rect x="221.438" y="976.582" style="fill:#EEDE35;" width="16.672" height="4.176"/>
					</g>
					<g>
						<rect x="240.305" y="898.102" style="fill:#1A315A;" width="16.672" height="103.031"/>
						<rect x="240.305" y="918.688" style="fill:#EEDE35;" width="16.672" height="8.359"/>
						<rect x="240.305" y="984.621" style="fill:#EEDE35;" width="16.672" height="4.18"/>
						<rect x="240.305" y="976.582" style="fill:#EEDE35;" width="16.672" height="4.176"/>
					</g>
					<g>
						<rect x="259.172" y="898.102" style="fill:#1A315A;" width="16.672" height="103.031"/>
						<rect x="259.172" y="918.688" style="fill:#EEDE35;" width="16.672" height="8.359"/>
						<rect x="259.172" y="984.621" style="fill:#EEDE35;" width="16.672" height="4.18"/>
						<rect x="259.172" y="976.582" style="fill:#EEDE35;" width="16.672" height="4.176"/>
					</g>
					<g>
						<rect x="278.035" y="898.102" style="fill:#1A315A;" width="16.672" height="103.031"/>
						<g>
							<polygon style="opacity:0.5;fill:#4899A9;" points="145.973,898.102 145.973,901.32 145.973,1001.133 148.063,1001.133 
								148.063,901.32 162.641,901.32 162.641,898.102 148.063,898.102 							"/>
							<polygon style="opacity:0.5;fill:#4899A9;" points="164.84,898.102 164.84,901.32 164.84,1001.133 166.93,1001.133 
								166.93,901.32 181.512,901.32 181.512,898.102 166.93,898.102 							"/>
							<polygon style="opacity:0.5;fill:#4899A9;" points="183.703,898.102 183.703,901.32 183.703,1001.133 185.797,1001.133 
								185.797,901.32 200.375,901.32 200.375,898.102 185.797,898.102 							"/>
							<polygon style="opacity:0.5;fill:#4899A9;" points="202.574,898.102 202.574,901.32 202.574,1001.133 204.664,1001.133 
								204.664,901.32 219.246,901.32 219.246,898.102 204.664,898.102 							"/>
							<polygon style="opacity:0.5;fill:#4899A9;" points="221.438,898.102 221.438,901.32 221.438,1001.133 223.527,1001.133 
								223.527,901.32 238.109,901.32 238.109,898.102 223.527,898.102 							"/>
							<polygon style="opacity:0.5;fill:#4899A9;" points="240.305,898.102 240.305,901.32 240.305,1001.133 242.398,1001.133 
								242.398,901.32 256.977,901.32 256.977,898.102 242.398,898.102 							"/>
							<polygon style="opacity:0.5;fill:#4899A9;" points="259.172,898.102 259.172,901.32 259.172,1001.133 261.262,1001.133 
								261.262,901.32 275.844,901.32 275.844,898.102 261.262,898.102 							"/>
							<polygon style="opacity:0.5;fill:#4899A9;" points="294.707,898.102 280.129,898.102 278.035,898.102 278.035,901.32 
								278.035,1001.133 280.129,1001.133 280.129,901.32 294.707,901.32 							"/>
						</g>
						<rect x="278.035" y="918.688" style="fill:#EEDE35;" width="16.672" height="8.359"/>
						<rect x="278.035" y="984.621" style="fill:#EEDE35;" width="16.672" height="4.18"/>
						<rect x="278.035" y="976.582" style="fill:#EEDE35;" width="16.672" height="4.176"/>
					</g>
				</g>
				<rect x="142.199" y="1015.793" style="fill:#2E5274;" width="420.813" height="35.84"/>
				<g>
					<rect x="392.457" y="1018.195" style="fill:#0E6032;" width="12.203" height="103.035"/>
					<rect x="392.457" y="1018.195" style="fill:#258143;" width="12.203" height="3.223"/>
					<rect x="392.457" y="1018.195" style="fill:#258143;" width="1.527" height="103.035"/>
					<rect x="392.457" y="1038.785" style="fill:#EEDE35;" width="12.203" height="8.363"/>
					<rect x="392.457" y="1104.719" style="fill:#EEDE35;" width="12.203" height="4.184"/>
					<rect x="392.457" y="1096.68" style="fill:#EEDE35;" width="12.203" height="4.18"/>
				</g>
				<g>
					<polygon style="fill:#003C1D;" points="450.887,1117.953 439.395,1122.07 404.66,1025.066 416.141,1020.953 					"/>
					<polygon style="fill:#0E6032;" points="417.23,1023.981 416.141,1020.953 404.66,1025.066 405.742,1028.098 					"/>
					
						<rect x="421.983" y="1021.792" transform="matrix(0.9413 -0.3376 0.3376 0.9413 -337.5464 205.7486)" style="fill:#0E6032;" width="1.531" height="103.036"/>
				</g>
				<g>
					
						<rect x="439.562" y="1020.435" transform="matrix(0.9063 -0.4226 0.4226 0.9063 -411.2473 288.7523)" style="fill:#003C1D;" width="12.2" height="103.032"/>
					
						<rect x="418.495" y="1025.1" transform="matrix(0.9065 -0.4223 0.4223 0.9065 -393.8627 275.3505)" style="fill:#0E6032;" width="12.2" height="3.218"/>
					
						<rect x="440.061" y="1022.685" transform="matrix(0.9059 -0.4236 0.4236 0.9059 -413.5009 287.8415)" style="fill:#0E6032;" width="1.533" height="103.036"/>
					
						<rect x="428.27" y="1043.521" transform="matrix(0.9067 -0.4217 0.4217 0.9067 -401.2823 280.8632)" style="fill:#EEDE35;" width="12.202" height="8.364"/>
					
						<rect x="455.221" y="1103.487" transform="matrix(0.9065 -0.4222 0.4222 0.9065 -423.6482 298.1445)" style="fill:#EEDE35;" width="12.203" height="4.184"/>
				</g>
				<g>
					<g>
						
							<rect x="452.997" y="1020.154" transform="matrix(0.9066 -0.4219 0.4219 0.9066 -409.3089 293.7765)" style="fill:#494DA0;" width="12.202" height="103.035"/>
						<polygon style="fill:#5C63AD;" points="444.242,1025.309 442.883,1022.395 431.82,1027.543 433.18,1030.469 						"/>
						
							<rect x="453.495" y="1022.406" transform="matrix(0.9068 -0.4215 0.4215 0.9068 -410.3472 291.5438)" style="fill:#5C63AD;" width="1.53" height="103.034"/>
						<polygon style="fill:#EEDE35;" points="455.102,1048.633 444.039,1053.789 440.512,1046.207 451.57,1041.063 						"/>
					</g>
					<g>
						
							<rect x="466.531" y="1020.437" transform="matrix(0.9064 -0.4225 0.4225 0.9064 -408.6168 300.031)" style="fill:#494DA0;" width="12.204" height="103.03"/>
						
							<rect x="445.465" y="1025.102" transform="matrix(0.9069 -0.4213 0.4213 0.9069 -390.5033 285.7882)" style="fill:#5C63AD;" width="12.201" height="3.216"/>
						<polygon style="fill:#5C63AD;" points="446.746,1027.176 445.355,1027.828 488.848,1121.23 490.234,1120.582 						"/>
					</g>
					<g>
						<rect x="494.078" y="1018.195" style="fill:#494DA0;" width="12.203" height="103.035"/>
						<rect x="494.078" y="1018.195" style="fill:#5C63AD;" width="12.203" height="3.223"/>
						<rect x="494.078" y="1018.195" style="fill:#5C63AD;" width="1.527" height="103.035"/>
					</g>
					<g>
						<rect x="507.887" y="1018.195" style="fill:#494DA0;" width="12.199" height="103.035"/>
						<rect x="507.887" y="1018.195" style="fill:#5C63AD;" width="12.199" height="3.223"/>
						<rect x="507.887" y="1018.195" style="fill:#5C63AD;" width="1.527" height="103.035"/>
					</g>
					<g>
						<rect x="521.695" y="1018.195" style="fill:#494DA0;" width="12.203" height="103.035"/>
						<rect x="521.695" y="1018.195" style="fill:#5C63AD;" width="12.203" height="3.223"/>
						<rect x="521.695" y="1018.195" style="fill:#5C63AD;" width="1.531" height="103.035"/>
					</g>
				</g>
				<rect x="142.199" y="725.398" style="fill:#6DC1E4;" width="420.813" height="14.656"/>
				<rect x="142.652" y="863.266" style="fill:#6DC1E4;" width="420.809" height="14.66"/>
				<rect x="143.098" y="1001.133" style="fill:#6DC1E4;" width="420.813" height="14.66"/>
				<rect x="142.199" y="561.957" style="fill:#2E5274;" width="420.813" height="26.609"/>
				<polygon style="opacity:0.6;fill:#66CAD8;" points="305.402,1137.516 409.18,1137.516 142.199,860.188 142.199,967.992 				"/>
				<g style="opacity:0.7;">
					<polygon style="fill:#66CAD8;" points="142.199,638.613 563.012,1046.219 563.012,1025.055 142.199,617.445 					"/>
					<polygon style="fill:#66CAD8;" points="563.012,1009.93 563.012,958.535 153.598,561.957 142.199,561.957 142.199,602.324 
											"/>
				</g>
				<rect x="142.199" y="1121.23" style="fill:#49000B;" width="420.813" height="16.285"/>
				<rect x="318.438" y="561.957" style="fill:#771118;" width="68.34" height="575.559"/>
				<rect x="341.816" y="561.957" style="fill:#A32F34;" width="21.582" height="575.559"/>
				<rect x="359.801" y="561.957" style="fill:#CA5B50;" width="3.598" height="575.559"/>
				<rect x="107.133" y="520.695" style="fill:#600612;" width="491.848" height="27.145"/>
				<g>
					<ellipse style="fill:#600612;" cx="329.68" cy="862.492" rx="8.094" ry="8.106"/>
					<g>
						<path style="fill:#DDDBB1;" d="M337.773,859.156c0,4.477-3.625,8.102-8.094,8.102c-4.473,0-8.094-3.625-8.094-8.102
							c0-4.48,3.621-8.109,8.094-8.109C334.148,851.047,337.773,854.676,337.773,859.156z"/>
						<path style="fill:#B8B690;" d="M336.195,854.387c0,0.012,0,0.023,0,0.039c0,4.477-3.621,8.105-8.09,8.105
							c-2.688,0-5.047-1.32-6.512-3.34c0.02,4.457,3.629,8.066,8.086,8.066c4.469,0,8.094-3.625,8.094-8.102
							C337.773,857.363,337.176,855.727,336.195,854.387z"/>
						<path style="fill:#9F9B72;" d="M336.633,855.09c0.141,0.59,0.234,1.195,0.234,1.828c0,4.48-3.621,8.105-8.09,8.105
							c-2.992,0-5.574-1.645-6.973-4.066c0.82,3.609,4.027,6.301,7.875,6.301c4.469,0,8.094-3.625,8.094-8.102
							C337.773,857.66,337.34,856.289,336.633,855.09z"/>
						<path style="fill:#FFFFFF;" d="M329.68,852.176c0,0-5.109-0.699-6.855,5.852C321.594,862.645,337.211,856.227,329.68,852.176z
							"/>
					</g>
				</g>
				<g>
					<path style="fill:#600612;" d="M383.27,860.82c0,4.477-3.625,8.109-8.094,8.109c-4.469,0-8.094-3.633-8.094-8.109
						c0-4.477,3.625-8.105,8.094-8.105C379.645,852.715,383.27,856.344,383.27,860.82z"/>
					<g>
						
							<ellipse transform="matrix(1 -0.0011 0.0011 1 -0.9186 0.4025)" style="fill:#DDDBB1;" cx="375.176" cy="857.484" rx="8.094" ry="8.105"/>
						<path style="fill:#B8B690;" d="M381.691,852.715c0,0.016,0.008,0.027,0.008,0.039c0,4.477-3.629,8.106-8.094,8.106
							c-2.684,0-5.047-1.32-6.516-3.332c0.02,4.453,3.633,8.063,8.086,8.063c4.469,0,8.094-3.629,8.094-8.105
							C383.27,855.699,382.672,854.055,381.691,852.715z"/>
						<path style="fill:#9F9B72;" d="M382.129,853.418c0.145,0.59,0.242,1.195,0.242,1.836c0,4.473-3.629,8.102-8.094,8.102
							c-2.996,0-5.578-1.649-6.973-4.066c0.816,3.605,4.027,6.301,7.871,6.301c4.469,0,8.094-3.629,8.094-8.105
							C383.27,855.988,382.836,854.617,382.129,853.418z"/>
						<path style="fill:#FFFFFF;" d="M375.176,850.504c0,0-5.105-0.695-6.855,5.856C367.09,860.977,382.703,854.559,375.176,850.504
							z"/>
					</g>
				</g>
				<rect x="131.41" y="1150.551" style="opacity:0.4;fill:#49000B;" width="442.391" height="148.777"/>
				<rect x="131.41" y="1150.551" style="fill:#49000B;" width="442.391" height="3.254"/>
			</g>
			<g>
				<g>
					<rect x="146.063" y="1159.238" style="fill:#CA5B50;" width="199.617" height="131.398"/>
					<rect x="154.309" y="1170.098" style="fill:#A32F34;" width="183.121" height="120.539"/>
					<rect x="162.145" y="1180.414" style="fill:#771118;" width="167.445" height="110.223"/>
					<rect x="167.918" y="1188.02" style="fill:#A32F34;" width="155.898" height="102.617"/>
					<g>
						<path style="fill:#600612;" d="M250.977,1236.383c0,4.473-3.621,8.105-8.094,8.105c-4.469,0-8.086-3.633-8.086-8.105
							c0-4.48,3.617-8.105,8.086-8.105C247.355,1228.277,250.977,1231.902,250.977,1236.383z"/>
						<g>
							<path style="fill:#DDDBB1;" d="M250.977,1233.043c0,4.477-3.621,8.105-8.094,8.105c-4.469,0-8.086-3.629-8.086-8.105
								s3.617-8.102,8.086-8.102C247.355,1224.941,250.977,1228.566,250.977,1233.043z"/>
							<path style="fill:#B8B690;" d="M249.402,1228.277c0,0.012,0.004,0.023,0.004,0.035c0,4.477-3.625,8.109-8.098,8.109
								c-2.68,0-5.039-1.32-6.512-3.336c0.02,4.457,3.633,8.063,8.086,8.063c4.473,0,8.094-3.629,8.094-8.105
								C250.977,1231.258,250.383,1229.613,249.402,1228.277z"/>
							<path style="fill:#9F9B72;" d="M249.84,1228.98c0.141,0.59,0.238,1.195,0.238,1.828c0,4.48-3.621,8.113-8.094,8.113
								c-2.992,0-5.574-1.66-6.977-4.074c0.824,3.605,4.031,6.301,7.875,6.301c4.473,0,8.094-3.629,8.094-8.105
								C250.977,1231.555,250.547,1230.176,249.84,1228.98z"/>
							<path style="fill:#FFFFFF;" d="M242.883,1226.063c0,0-5.102-0.691-6.852,5.859
								C234.797,1236.531,250.414,1230.113,242.883,1226.063z"/>
						</g>
					</g>
				</g>
				<g>
					<rect x="358.637" y="1159.238" style="fill:#CA5B50;" width="199.617" height="131.398"/>
					<rect x="366.887" y="1170.098" style="fill:#A32F34;" width="183.117" height="120.539"/>
					<rect x="374.727" y="1180.414" style="fill:#771118;" width="167.441" height="110.223"/>
					<rect x="380.496" y="1188.02" style="fill:#A32F34;" width="155.902" height="102.617"/>
					<g>
						<path style="fill:#600612;" d="M463.555,1236.383c0,4.473-3.625,8.105-8.094,8.105c-4.469,0-8.09-3.633-8.09-8.105
							c0-4.48,3.621-8.105,8.09-8.105C459.93,1228.277,463.555,1231.902,463.555,1236.383z"/>
						<g>
							<path style="fill:#DDDBB1;" d="M463.555,1233.043c0,4.477-3.625,8.105-8.094,8.105c-4.469,0-8.09-3.629-8.09-8.105
								s3.621-8.102,8.09-8.102C459.93,1224.941,463.555,1228.566,463.555,1233.043z"/>
							<path style="fill:#B8B690;" d="M461.98,1228.277c0,0.012,0.004,0.023,0.004,0.035c0,4.477-3.629,8.109-8.094,8.109
								c-2.684,0-5.047-1.32-6.516-3.336c0.023,4.457,3.633,8.063,8.086,8.063c4.469,0,8.094-3.629,8.094-8.105
								C463.555,1231.258,462.957,1229.613,461.98,1228.277z"/>
							<path style="fill:#9F9B72;" d="M462.414,1228.98c0.141,0.59,0.242,1.195,0.242,1.828c0,4.48-3.625,8.113-8.094,8.113
								c-2.992,0-5.574-1.66-6.977-4.074c0.824,3.605,4.031,6.301,7.875,6.301c4.469,0,8.094-3.629,8.094-8.105
								C463.555,1231.555,463.121,1230.176,462.414,1228.98z"/>
							<path style="fill:#FFFFFF;" d="M455.461,1226.063c0,0-5.105-0.691-6.855,5.859
								C447.375,1236.531,462.992,1230.113,455.461,1226.063z"/>
						</g>
					</g>
				</g>
			</g>
			<rect x="90.984" y="1317.785" style="fill:#AC3E2E;" width="521.262" height="56.469"/>
			<rect x="90.984" y="1317.785" style="fill:#F8BC7E;" width="521.262" height="7.602"/>
		</g>
		<g>
			<rect x="389.895" y="712.785" style="fill:#26718D;" width="58.332" height="12.426"/>
			<rect x="389.895" y="718.922" style="fill:#1C677B;" width="58.332" height="6.289"/>
			<rect x="448.531" y="713.879" style="fill:#FFFFFF;" width="49.551" height="10.25"/>
			<rect x="449.313" y="713.879" style="fill:#A5CDCC;" width="48.77" height="3.883"/>
			<polygon style="fill:#2899B8;" points="499.484,714.652 499.484,712.785 450.711,712.785 446.672,712.785 446.672,714.652 
				446.672,723.348 446.672,725.211 450.711,725.211 499.484,725.211 499.484,723.348 450.711,723.348 450.711,714.652 			"/>
			<rect x="415.27" y="712.785" style="fill:#FFFFFF;" width="6.137" height="12.426"/>
		</g>
		<g>
			<rect x="389.895" y="700.363" style="fill:#1A335E;" width="58.332" height="12.422"/>
			<rect x="389.895" y="706.496" style="fill:#0B2242;" width="58.332" height="6.289"/>
			<rect x="448.531" y="701.449" style="fill:#FFFFFF;" width="49.551" height="10.254"/>
			<rect x="449.313" y="701.449" style="fill:#A5CDCC;" width="48.77" height="3.887"/>
			<polygon style="fill:#274877;" points="499.484,702.231 499.484,700.363 450.711,700.363 446.672,700.363 446.672,702.231 
				446.672,710.922 446.672,712.785 450.711,712.785 499.484,712.785 499.484,710.922 450.711,710.922 450.711,702.231 			"/>
			<rect x="433.234" y="700.363" style="fill:#EEDE35;" width="5.824" height="12.422"/>
		</g>
		<g>
			<rect x="389.895" y="687.938" style="fill:#26718D;" width="58.332" height="12.426"/>
			<rect x="389.895" y="694.07" style="fill:#1C677B;" width="58.332" height="6.293"/>
			<rect x="448.531" y="689.023" style="fill:#FFFFFF;" width="49.551" height="10.25"/>
			<rect x="449.313" y="689.023" style="fill:#A5CDCC;" width="48.77" height="3.883"/>
			<polygon style="fill:#2899B8;" points="499.484,689.801 499.484,687.938 450.711,687.938 446.672,687.938 446.672,689.801 
				446.672,698.496 446.672,700.363 450.711,700.363 499.484,700.363 499.484,698.496 450.711,698.496 450.711,689.801 			"/>
			<rect x="398.863" y="687.938" style="fill:#EEDE35;" width="3.031" height="12.426"/>
			<rect x="402.941" y="687.938" style="fill:#EEDE35;" width="3.145" height="12.426"/>
		</g>
		<g>
			<rect x="389.895" y="675.508" style="fill:#60060F;" width="58.332" height="12.43"/>
			<rect x="389.895" y="681.644" style="fill:#49000B;" width="58.332" height="6.293"/>
			<rect x="448.531" y="676.598" style="fill:#FFFFFF;" width="49.551" height="10.254"/>
			<rect x="449.313" y="676.598" style="fill:#A5CDCC;" width="48.77" height="3.887"/>
			<polygon style="fill:#60060F;" points="499.484,677.375 499.484,675.508 450.711,675.508 446.672,675.508 446.672,677.375 
				446.672,686.07 446.672,687.938 450.711,687.938 499.484,687.938 499.484,686.07 450.711,686.07 450.711,677.375 			"/>
			<rect x="433.234" y="675.508" style="fill:#EEDE35;" width="5.824" height="12.43"/>
			<rect x="398.863" y="675.508" style="fill:#EEDE35;" width="3.031" height="12.43"/>
			<rect x="402.941" y="675.508" style="fill:#EEDE35;" width="3.145" height="12.43"/>
		</g>
		<g>
			<rect x="389.895" y="663.086" style="fill:#26718D;" width="58.332" height="12.422"/>
			<rect x="389.895" y="669.219" style="fill:#1C677B;" width="58.332" height="6.289"/>
			<rect x="448.531" y="664.172" style="fill:#FFFFFF;" width="49.551" height="10.254"/>
			<rect x="449.313" y="664.172" style="fill:#A5CDCC;" width="48.77" height="3.883"/>
			<polygon style="fill:#2899B8;" points="499.484,664.949 499.484,663.086 450.711,663.086 446.672,663.086 446.672,664.949 
				446.672,673.648 446.672,675.508 450.711,675.508 499.484,675.508 499.484,673.648 450.711,673.648 450.711,664.949 			"/>
		</g>
		<g>
			<rect x="389.895" y="650.66" style="fill:#60060F;" width="58.332" height="12.426"/>
			<rect x="389.895" y="656.797" style="fill:#49000B;" width="58.332" height="6.289"/>
			<rect x="448.531" y="651.746" style="fill:#FFFFFF;" width="49.551" height="10.254"/>
			<rect x="449.313" y="651.746" style="fill:#A5CDCC;" width="48.77" height="3.887"/>
			<polygon style="fill:#60060F;" points="499.484,652.523 499.484,650.66 450.711,650.66 446.672,650.66 446.672,652.523 
				446.672,661.219 446.672,663.086 450.711,663.086 499.484,663.086 499.484,661.219 450.711,661.219 450.711,652.523 			"/>
		</g>
		<g>
			<rect x="389.895" y="638.234" style="fill:#1A335E;" width="58.332" height="12.426"/>
			<rect x="389.895" y="644.371" style="fill:#0B2242;" width="58.332" height="6.289"/>
			<rect x="448.531" y="639.32" style="fill:#FFFFFF;" width="49.551" height="10.258"/>
			<rect x="449.313" y="639.32" style="fill:#A5CDCC;" width="48.77" height="3.887"/>
			<polygon style="fill:#274877;" points="499.484,640.098 499.484,638.234 450.711,638.234 446.672,638.234 446.672,640.098 
				446.672,648.797 446.672,650.66 450.711,650.66 499.484,650.66 499.484,648.797 450.711,648.797 450.711,640.098 			"/>
			<rect x="433.234" y="638.234" style="fill:#EEDE35;" width="5.824" height="12.426"/>
			<rect x="398.863" y="638.234" style="fill:#EEDE35;" width="3.031" height="12.426"/>
			<rect x="402.941" y="638.234" style="fill:#EEDE35;" width="3.145" height="12.426"/>
		</g>
	</g>
	<g>
		<g>
			<rect x="1875.777" y="1364.578" style="fill:#3B000C;" width="60.875" height="26.27"/>
			<rect x="2096.852" y="1364.578" style="fill:#3B000C;" width="60.875" height="26.27"/>
		</g>
		<g>
			<polygon style="fill:#901D1F;" points="2171.82,1377.66 1861.684,1377.66 1847.582,962.43 2185.918,962.43 			"/>
			<rect x="1880.262" y="1105.059" style="fill:#600612;" width="272.977" height="19.621"/>
			<rect x="1880.262" y="1225.531" style="fill:#600612;" width="272.977" height="19.613"/>
			<rect x="1880.262" y="1348.559" style="fill:#600612;" width="272.977" height="19.617"/>
			<polygon style="fill:#600612;" points="2184.445,1005.746 2185.918,962.43 1847.582,962.43 1849.059,1005.746 			"/>
			<polygon style="fill:#46000B;" points="2184.926,991.637 2185.918,962.43 1847.582,962.43 1848.578,991.637 			"/>
			<path style="fill:#AC3E2E;" d="M2201.297,979.094c0,2.832-2.297,5.125-5.125,5.125h-358.84c-2.832,0-5.125-2.293-5.125-5.125
				v-24.352c0-2.832,2.293-5.125,5.125-5.125h358.84c2.828,0,5.125,2.293,5.125,5.125V979.094z"/>
			<path style="opacity:0.3;fill:#771118;" d="M1832.207,971.137v7.957c0,2.832,2.293,5.125,5.125,5.125h358.84
				c2.828,0,5.125-2.293,5.125-5.125v-7.957H1832.207z"/>
			<path style="fill:#F8BC7E;" d="M2201.297,957.035v-2.293c0-2.832-2.297-5.125-5.125-5.125h-358.84
				c-2.832,0-5.125,2.293-5.125,5.125v2.293H2201.297z"/>
			<g>
				<rect x="1880.262" y="1015.641" style="fill:#DA8155;" width="272.977" height="101.352"/>
				<rect x="1891.313" y="1021.465" style="fill:#AC3E2E;" width="250.875" height="95.527"/>
			</g>
			<g>
				<rect x="1880.262" y="1137.344" style="fill:#DA8155;" width="272.977" height="101.344"/>
				<rect x="1891.313" y="1143.164" style="fill:#AC3E2E;" width="250.875" height="95.523"/>
			</g>
			<g>
				<rect x="1880.262" y="1259.047" style="fill:#DA8155;" width="272.977" height="101.348"/>
				<rect x="1891.313" y="1264.879" style="fill:#AC3E2E;" width="250.875" height="95.516"/>
			</g>
			<g>
				<path style="fill:#600612;" d="M2025.504,1071.035c0,4.84-3.918,8.762-8.754,8.762c-4.84,0-8.75-3.922-8.75-8.762
					c0-4.852,3.91-8.777,8.75-8.777C2021.586,1062.258,2025.504,1066.184,2025.504,1071.035z"/>
				<g>
					<path style="fill:#DDDBB1;" d="M2025.504,1067.418c0,4.848-3.918,8.77-8.754,8.77c-4.84,0-8.75-3.922-8.75-8.77
						c0-4.84,3.91-8.762,8.75-8.762C2021.586,1058.656,2025.504,1062.578,2025.504,1067.418z"/>
					<path style="fill:#B8B690;" d="M2023.797,1062.258c0,0.02,0,0.035,0,0.047c0,4.84-3.918,8.773-8.746,8.773
						c-2.91,0-5.461-1.434-7.051-3.613c0.027,4.82,3.93,8.723,8.75,8.723c4.836,0,8.754-3.922,8.754-8.77
						C2025.504,1065.484,2024.863,1063.711,2023.797,1062.258z"/>
					<path style="fill:#9F9B72;" d="M2024.273,1063.027c0.152,0.633,0.258,1.293,0.258,1.984c0,4.84-3.918,8.762-8.754,8.762
						c-3.238,0-6.035-1.785-7.551-4.398c0.895,3.902,4.367,6.813,8.523,6.813c4.836,0,8.754-3.922,8.754-8.77
						C2025.504,1065.805,2025.039,1064.32,2024.273,1063.027z"/>
					<path style="fill:#FFFFFF;" d="M2016.75,1059.875c0,0-5.523-0.754-7.414,6.332
						C2008,1071.195,2024.898,1064.258,2016.75,1059.875z"/>
				</g>
			</g>
			<g>
				<path style="fill:#600612;" d="M2025.621,1193.051c0,4.844-3.922,8.77-8.75,8.77c-4.84,0-8.758-3.926-8.758-8.77
					s3.918-8.77,8.758-8.77C2021.699,1184.281,2025.621,1188.207,2025.621,1193.051z"/>
				<g>
					<path style="fill:#DDDBB1;" d="M2025.621,1189.441c0,4.844-3.922,8.773-8.75,8.773c-4.84,0-8.758-3.93-8.758-8.773
						c0-4.84,3.918-8.762,8.758-8.762C2021.699,1180.68,2025.621,1184.602,2025.621,1189.441z"/>
					<path style="fill:#B8B690;" d="M2023.914,1184.281c0,0.023,0.004,0.035,0.004,0.047c0,4.84-3.918,8.77-8.75,8.77
						c-2.902,0-5.457-1.43-7.047-3.609c0.02,4.82,3.93,8.727,8.75,8.727c4.828,0,8.75-3.93,8.75-8.773
						C2025.621,1187.508,2024.977,1185.734,2023.914,1184.281z"/>
					<path style="fill:#9F9B72;" d="M2024.395,1185.051c0.152,0.641,0.258,1.289,0.258,1.984c0,4.84-3.922,8.77-8.758,8.77
						c-3.238,0-6.031-1.785-7.547-4.406c0.887,3.895,4.359,6.816,8.523,6.816c4.828,0,8.75-3.93,8.75-8.773
						C2025.621,1187.828,2025.152,1186.34,2024.395,1185.051z"/>
					<path style="fill:#FFFFFF;" d="M2016.871,1181.891c0,0-5.527-0.754-7.418,6.34
						C2008.121,1193.219,2025.016,1186.277,2016.871,1181.891z"/>
				</g>
			</g>
			<g>
				<path style="fill:#600612;" d="M2025.738,1322.105c0,4.84-3.918,8.762-8.754,8.762c-4.832,0-8.758-3.922-8.758-8.762
					c0-4.848,3.926-8.777,8.758-8.777C2021.82,1313.328,2025.738,1317.258,2025.738,1322.105z"/>
				<g>
					<path style="fill:#DDDBB1;" d="M2025.738,1318.488c0,4.848-3.918,8.777-8.754,8.777c-4.832,0-8.758-3.93-8.758-8.777
						c0-4.84,3.926-8.762,8.758-8.762C2021.82,1309.727,2025.738,1313.648,2025.738,1318.488z"/>
					<path style="fill:#B8B690;" d="M2024.031,1313.328c0,0.02,0.008,0.035,0.008,0.047c0,4.844-3.918,8.77-8.754,8.77
						c-2.906,0-5.457-1.43-7.051-3.609c0.027,4.82,3.93,8.73,8.75,8.73c4.836,0,8.754-3.93,8.754-8.777
						C2025.738,1316.555,2025.098,1314.781,2024.031,1313.328z"/>
					<path style="fill:#9F9B72;" d="M2024.508,1314.098c0.148,0.633,0.262,1.293,0.262,1.977c0,4.848-3.922,8.77-8.758,8.77
						c-3.234,0-6.035-1.777-7.543-4.398c0.887,3.902,4.352,6.82,8.516,6.82c4.836,0,8.754-3.93,8.754-8.777
						C2025.738,1316.875,2025.273,1315.391,2024.508,1314.098z"/>
					<path style="fill:#FFFFFF;" d="M2016.984,1310.938c0,0-5.523-0.75-7.418,6.332
						C2008.234,1322.266,2025.133,1315.324,2016.984,1310.938z"/>
				</g>
			</g>
		</g>
	</g>
	<g>
		<path style="fill:#607B3D;" d="M2319.68,1189.707c0,0-29.148-141.816,25.695-236.383c0,0,47.648,40.762,30.828,230.039
			C2359.391,1372.637,2319.68,1189.707,2319.68,1189.707z"/>
		<path style="fill:#5B7439;" d="M2361.23,1198.859c0,0,78.586-23.742,129.348-93.148
			C2490.578,1105.711,2424.441,1108.57,2361.23,1198.859z"/>
		<path style="fill:#5B7439;" d="M2322.891,1194.211c0,0-78.586-23.738-129.34-93.145
			C2193.551,1101.066,2259.676,1103.918,2322.891,1194.211z"/>
		<path style="fill:#719251;" d="M2383.414,1194.676c0,0,40.289-105.629,6.68-217.168
			C2390.094,977.508,2337.32,1052.684,2383.414,1194.676z"/>
		<path style="fill:#719251;" d="M2387.316,1196.66c0,0,59.352-56.719,73.219-141.586
			C2460.535,1055.074,2402.848,1087.543,2387.316,1196.66z"/>
		<path style="fill:#5B7439;" d="M2387.523,1193.07c0,0,48.246-82.887,36.543-183.035
			C2424.066,1010.035,2369.902,1065.027,2387.523,1193.07z"/>
		<path style="fill:#719251;" d="M2310.563,1199.273c0,0-40.293-105.621-6.688-217.172
			C2303.875,982.102,2356.648,1057.281,2310.563,1199.273z"/>
		<path style="fill:#7FB763;" d="M2357.547,1227c0,0,48.984-101.898,24.82-215.855
			C2382.367,1011.145,2323.488,1081.652,2357.547,1227z"/>
		<path style="fill:#7FB763;" d="M2346.227,1226.348c0,0-54.359-99.129-36.32-214.219
			C2309.906,1012.129,2372.465,1079.387,2346.227,1226.348z"/>
		<path style="fill:#719251;" d="M2306.648,1201.262c0,0-59.34-56.723-73.207-141.582
			C2233.441,1059.68,2291.125,1092.141,2306.648,1201.262z"/>
		<path style="fill:#5B7439;" d="M2306.449,1197.668c0,0-48.25-82.887-36.547-183.035
			C2269.902,1014.633,2324.066,1069.629,2306.449,1197.668z"/>
		<g>
			<g>
				<path style="fill:#E9B57C;" d="M2400.621,1189.957l-54.09-1.613v-0.035l-0.66,0.02l-0.648-0.02v0.035l-54.098,1.613
					c0,0-9.23,101.895,21.438,182.68h32.66h1.309h32.656C2409.852,1291.852,2400.621,1189.957,2400.621,1189.957z"/>
				<path style="fill:#CE9966;" d="M2390.875,1333.477c-23.957,24.895-77.531-3.473-80.621-72.293
					c-3.055-68,68.414-62.648,91.117-59.25c-0.355-7.617-0.75-11.977-0.75-11.977l-54.09-1.613v-0.035l-0.66,0.02l-0.648-0.02v0.035
					l-54.098,1.613c0,0-9.23,101.895,21.438,182.68h32.66h1.309h32.656C2384.004,1359.949,2387.836,1346.73,2390.875,1333.477z"/>
				<path style="fill:#BA8153;" d="M2384.004,1358.781c-100.613,11.453-85.695-156.078-84.391-169.074l-8.488,0.25
					c0,0-9.23,101.895,21.438,182.68h32.66h1.309h32.656C2380.922,1368.082,2382.516,1363.449,2384.004,1358.781z"/>
				<path style="fill:#B27C51;" d="M2291.125,1189.957c0,0-0.285,3.203-0.594,8.902h110.684c-0.301-5.699-0.594-8.902-0.594-8.902
					l-35.398-1.051l-60.293,0.641L2291.125,1189.957z"/>
				<path style="fill:#E9B57C;" d="M2404.895,1192.891c0,0.543-0.441,0.984-0.992,0.984H2286.84c-0.543,0-0.988-0.441-0.988-0.984
					v-11.836c0-0.555,0.445-0.992,0.988-0.992h117.063c0.551,0,0.992,0.438,0.992,0.992V1192.891z"/>
				<path style="fill:#FED9B5;" d="M2403.902,1180.063H2286.84c-0.543,0-0.988,0.438-0.988,0.992v2.309h119.043v-2.309
					C2404.895,1180.5,2404.453,1180.063,2403.902,1180.063z"/>
			</g>
			<path style="fill:#F2C79C;" d="M2401.77,1213.605c-10.176-3.332-42.379-11.824-52.609,10.004
				c-12.195,26.051,12.859,60.008,42.211,51.441c0,0,3.977,33.676,0.184,55.398
				C2401.484,1285.328,2402.395,1240.121,2401.77,1213.605z"/>
		</g>
	</g>
	<path style="opacity:0.4;fill:#473018;" d="M2066.82,1620.605c0,53.324-376.879,96.539-841.777,96.539
		s-841.773-43.215-841.773-96.539c0-53.313,376.875-96.527,841.773-96.527S2066.82,1567.293,2066.82,1620.605z"/>
	<path style="fill:#BD3350;" d="M2066.82,1603.035c0,53.32-376.879,96.539-841.777,96.539s-841.773-43.219-841.773-96.539
		c0-53.313,376.875-96.531,841.773-96.531S2066.82,1549.723,2066.82,1603.035z"/>
	<path style="fill:#A01D40;" d="M1225.043,1528.02c-361.281,0-654.16,33.582-654.16,75.016c0,41.438,292.879,75.023,654.16,75.023
		c361.289,0,654.168-33.586,654.168-75.023C1879.211,1561.602,1586.332,1528.02,1225.043,1528.02z M1225.043,1658.543
		c-267.313,0-484.012-24.848-484.012-55.508c0-30.648,216.699-55.504,484.012-55.504s484.016,24.855,484.016,55.504
		C1709.059,1633.695,1492.355,1658.543,1225.043,1658.543z"/>
</g>
</svg>
