<?xml version="1.0" encoding="utf-8"?>
<!-- Generator: Adobe Illustrator 27.5.0, SVG Export Plug-In . SVG Version: 6.00 Build 0)  -->
<svg version="1.1" xmlns="http://www.w3.org/2000/svg" xmlns:xlink="http://www.w3.org/1999/xlink" x="0px" y="0px"
	 viewBox="0 0 750 500" style="enable-background:new 0 0 750 500;" xml:space="preserve">
<g id="BACKGROUND">
	<radialGradient id="SVGID_1_" cx="358.5007" cy="7.012" r="477.9036" gradientUnits="userSpaceOnUse">
		<stop  offset="0" style="stop-color:#212E80"/>
		<stop  offset="0.2674" style="stop-color:#17216D"/>
		<stop  offset="0.7303" style="stop-color:#090D51"/>
		<stop  offset="1" style="stop-color:#040647"/>
	</radialGradient>
	<rect style="fill:url(#SVGID_1_);" width="750" height="500"/>
</g>
<g id="OBJECTS">
	<g>
		
			<linearGradient id="SVGID_00000042722693037341432820000017364406048289822884_" gradientUnits="userSpaceOnUse" x1="432.9701" y1="374.8156" x2="848.834" y2="374.8156">
			<stop  offset="0" style="stop-color:#154296"/>
			<stop  offset="0.2674" style="stop-color:#0E3283"/>
			<stop  offset="0.7303" style="stop-color:#041C67"/>
			<stop  offset="1" style="stop-color:#00135D"/>
		</linearGradient>
		<path style="fill:url(#SVGID_00000042722693037341432820000017364406048289822884_);" d="M439.355,500H750V253.505
			c-30.979-9.36-77.361-0.805-102.912,15.455c-10.429,6.637-19.112,15.482-27.632,24.536
			c-10.099,10.732-19.969,21.759-32.248,29.755c-22.843,14.876-53.271,18.834-70.615,39.864
			c-6.161,7.471-10.154,18.055-6.089,26.843c5.22,11.284,21.026,14.555,26.214,25.854c4.394,9.57-1.386,21.678-10.729,26.535
			s-20.909,3.59-30.514-0.726c-8.194-3.682-15.327-9.366-23.294-13.517c-7.967-4.151-17.488-6.721-25.91-3.597
			c-17.716,6.571-13.365,42.882-11.233,57.379C435.95,488.071,437.414,494.117,439.355,500z"/>
		
			<linearGradient id="SVGID_00000088813323996525353250000017566348176644618121_" gradientUnits="userSpaceOnUse" x1="571.2928" y1="408.5184" x2="725.4346" y2="408.5184">
			<stop  offset="0.0135" style="stop-color:#FFAD69"/>
			<stop  offset="0.5189" style="stop-color:#F834D6"/>
			<stop  offset="1" style="stop-color:#5B00B0"/>
		</linearGradient>
		<path style="fill:url(#SVGID_00000088813323996525353250000017566348176644618121_);" d="M618.563,399.695
			c-12.311,15.788-39.702,17.518-46.118,36.483c-4.316,12.757,4.126,26.652,14.964,34.645c20.223,14.914,47.931,15.995,72.255,9.69
			c17.999-4.665,35.409-13.315,47.756-27.218c15.859-17.857,21.897-43.933,15.502-66.944c-6.411-23.068-32.318-54.888-58.956-53.416
			C627.81,334.932,634.534,379.213,618.563,399.695z"/>
		<g>
			
				<linearGradient id="SVGID_00000032649130926594650780000015786898120557981599_" gradientUnits="userSpaceOnUse" x1="282.072" y1="140.7097" x2="-18.5271" y2="-15.3198">
				<stop  offset="0.0135" style="stop-color:#FFAD69"/>
				<stop  offset="0.5189" style="stop-color:#F834D6"/>
				<stop  offset="1" style="stop-color:#5B00B0"/>
			</linearGradient>
			<path style="fill:url(#SVGID_00000032649130926594650780000015786898120557981599_);" d="M287.418,86.312
				c-1.274-9.693-4.494-19.242-10.193-27.186c-11.209-15.624-30.807-23.378-49.956-25.128c-19.149-1.75-38.335,1.669-57.404,4.14
				c-19.069,2.471-38.798,3.951-57.232-1.52C92.84,30.744,76.022,17.035,64.203,0H0v62.929c14.051-3.433,29.346-1.847,42.739,3.327
				c21.758,8.407,39.299,24.987,54.851,42.372c13.436,15.019,26.063,31.134,42.52,42.765c14.683,10.378,31.985,16.785,49.736,19.647
				c14.621,2.357,29.825,2.329,44.01-1.93C268.104,158.825,292.077,121.766,287.418,86.312z"/>
			
				<radialGradient id="SVGID_00000073001887126085906650000016879074213962585484_" cx="175.1524" cy="-1.0864" r="303.6958" gradientTransform="matrix(0.9347 0.3555 -0.2035 0.5352 11.2184 -62.7663)" gradientUnits="userSpaceOnUse">
				<stop  offset="0.6944" style="stop-color:#E9CDF6;stop-opacity:0"/>
				<stop  offset="0.9865" style="stop-color:#FFFFFF"/>
			</radialGradient>
			<path style="fill:url(#SVGID_00000073001887126085906650000016879074213962585484_);" d="M287.418,86.312
				c-1.274-9.693-4.494-19.242-10.193-27.186c-11.209-15.624-30.807-23.378-49.956-25.128c-19.149-1.75-38.335,1.669-57.404,4.14
				c-19.069,2.471-38.798,3.951-57.232-1.52C92.84,30.744,76.022,17.035,64.203,0H0v62.929c14.051-3.433,29.346-1.847,42.739,3.327
				c21.758,8.407,39.299,24.987,54.851,42.372c13.436,15.019,26.063,31.134,42.52,42.765c14.683,10.378,31.985,16.785,49.736,19.647
				c14.621,2.357,29.825,2.329,44.01-1.93C268.104,158.825,292.077,121.766,287.418,86.312z"/>
		</g>
		
			<linearGradient id="SVGID_00000181076253929575910370000015935023977738312617_" gradientUnits="userSpaceOnUse" x1="-28.1004" y1="433.3417" x2="381.398" y2="433.3417">
			<stop  offset="0.0135" style="stop-color:#FFAD69"/>
			<stop  offset="0.5189" style="stop-color:#F834D6"/>
			<stop  offset="1" style="stop-color:#5B00B0"/>
		</linearGradient>
		<path style="fill:url(#SVGID_00000181076253929575910370000015935023977738312617_);" d="M379.376,500
			c-0.903-3.14-2.082-6.196-3.503-9.082c-10.358-21.043-31.631-35.357-54.344-41.211c-22.712-5.854-46.779-4.062-69.738,0.733
			c-26.553,5.545-55.609,14.727-79.485,1.853c-15.233-8.214-24.731-23.762-35.263-37.495c-11.14-14.525-24.324-27.787-40.253-36.806
			c-15.929-9.019-34.825-13.547-52.824-10.214c-17.458,3.233-32.6,13.643-43.967,27.459V500H379.376z"/>
		
			<radialGradient id="SVGID_00000119833224000400432250000006227164458573917581_" cx="139.6807" cy="356.7647" r="79.5827" gradientUnits="userSpaceOnUse">
			<stop  offset="0.0135" style="stop-color:#FFAD69"/>
			<stop  offset="0.5189" style="stop-color:#F834D6"/>
			<stop  offset="1" style="stop-color:#9100D1"/>
		</radialGradient>
		<path style="fill:url(#SVGID_00000119833224000400432250000006227164458573917581_);" d="M90.276,406.832
			c6.015,13.271,17.794,23.807,31.651,28.31c7.229,2.349,15.375,3.04,22.268-0.165c6.457-3.003,10.99-8.997,14.619-15.124
			c9.727-16.42,14.717-37.363,6.467-54.572c-8.648-18.038-37.623-30.289-56.769-22.523
			C85.588,352.058,81.322,387.074,90.276,406.832z"/>
		
			<radialGradient id="SVGID_00000092451150788214110630000000572801598040930725_" cx="620.0883" cy="320.4268" r="25.2267" gradientTransform="matrix(0.6077 -0.7942 0.5997 0.4589 51.1104 665.8497)" gradientUnits="userSpaceOnUse">
			<stop  offset="0.0135" style="stop-color:#FFAD69"/>
			<stop  offset="0.0869" style="stop-color:#FFA570"/>
			<stop  offset="0.2004" style="stop-color:#FD8F84"/>
			<stop  offset="0.3398" style="stop-color:#FB6CA4"/>
			<stop  offset="0.4985" style="stop-color:#F83BD0"/>
			<stop  offset="0.5189" style="stop-color:#F834D6"/>
			<stop  offset="1" style="stop-color:#9100D1"/>
		</radialGradient>
		<path style="fill:url(#SVGID_00000092451150788214110630000000572801598040930725_);" d="M613.737,341.024
			c4.889,2.423,11.017,1.797,15.614-1.142c10.686-6.833,13.651-32.776-3.996-30.768C613.739,310.435,600.46,334.442,613.737,341.024
			z"/>
		<g>
			<g>
				<path style="fill:#FFFFFF;" d="M728.748,86.442c-1.273,0-2.305,1.032-2.305,2.304c0,1.273,1.032,2.305,2.305,2.305
					c1.273,0,2.305-1.032,2.305-2.305C731.053,87.474,730.021,86.442,728.748,86.442z"/>
				<path style="fill:#FFFFFF;" d="M728.748,73.916c-1.273,0-2.305,1.032-2.305,2.304c0,1.273,1.032,2.305,2.305,2.305
					c1.273,0,2.305-1.032,2.305-2.305C731.053,74.948,730.021,73.916,728.748,73.916z"/>
				<path style="fill:#FFFFFF;" d="M728.748,61.389c-1.273,0-2.305,1.032-2.305,2.305c0,1.273,1.032,2.305,2.305,2.305
					c1.273,0,2.305-1.032,2.305-2.305C731.053,62.421,730.021,61.389,728.748,61.389z"/>
				<path style="fill:#FFFFFF;" d="M728.748,48.863c-1.273,0-2.305,1.032-2.305,2.305c0,1.273,1.032,2.305,2.305,2.305
					c1.273,0,2.305-1.032,2.305-2.305C731.053,49.895,730.021,48.863,728.748,48.863z"/>
				<path style="fill:#FFFFFF;" d="M728.748,40.945c1.273,0,2.305-1.032,2.305-2.305c0-1.273-1.032-2.305-2.305-2.305
					c-1.273,0-2.305,1.032-2.305,2.305C726.443,39.914,727.475,40.945,728.748,40.945z"/>
				<path style="fill:#FFFFFF;" d="M716.58,86.442c-1.273,0-2.305,1.032-2.305,2.304c0,1.273,1.032,2.305,2.305,2.305
					c1.273,0,2.305-1.032,2.305-2.305C718.885,87.474,717.853,86.442,716.58,86.442z"/>
				<path style="fill:#FFFFFF;" d="M716.58,73.916c-1.273,0-2.305,1.032-2.305,2.304c0,1.273,1.032,2.305,2.305,2.305
					c1.273,0,2.305-1.032,2.305-2.305C718.885,74.948,717.853,73.916,716.58,73.916z"/>
				<path style="fill:#FFFFFF;" d="M716.58,61.389c-1.273,0-2.305,1.032-2.305,2.305c0,1.273,1.032,2.305,2.305,2.305
					c1.273,0,2.305-1.032,2.305-2.305C718.885,62.421,717.853,61.389,716.58,61.389z"/>
				<path style="fill:#FFFFFF;" d="M716.58,48.863c-1.273,0-2.305,1.032-2.305,2.305c0,1.273,1.032,2.305,2.305,2.305
					c1.273,0,2.305-1.032,2.305-2.305C718.885,49.895,717.853,48.863,716.58,48.863z"/>
				<path style="fill:#FFFFFF;" d="M716.58,36.336c-1.273,0-2.305,1.032-2.305,2.305c0,1.273,1.032,2.305,2.305,2.305
					c1.273,0,2.305-1.032,2.305-2.305C718.885,37.368,717.853,36.336,716.58,36.336z"/>
				<path style="fill:#FFFFFF;" d="M704.412,86.442c-1.273,0-2.305,1.032-2.305,2.304c0,1.273,1.032,2.305,2.305,2.305
					s2.305-1.032,2.305-2.305C706.717,87.474,705.685,86.442,704.412,86.442z"/>
				<path style="fill:#FFFFFF;" d="M704.412,73.916c-1.273,0-2.305,1.032-2.305,2.304c0,1.273,1.032,2.305,2.305,2.305
					s2.305-1.032,2.305-2.305C706.717,74.948,705.685,73.916,704.412,73.916z"/>
				<path style="fill:#FFFFFF;" d="M704.412,61.389c-1.273,0-2.305,1.032-2.305,2.305c0,1.273,1.032,2.305,2.305,2.305
					s2.305-1.032,2.305-2.305C706.717,62.421,705.685,61.389,704.412,61.389z"/>
				<path style="fill:#FFFFFF;" d="M704.412,48.863c-1.273,0-2.305,1.032-2.305,2.305c0,1.273,1.032,2.305,2.305,2.305
					s2.305-1.032,2.305-2.305C706.717,49.895,705.685,48.863,704.412,48.863z"/>
				<path style="fill:#FFFFFF;" d="M704.412,36.336c-1.273,0-2.305,1.032-2.305,2.305c0,1.273,1.032,2.305,2.305,2.305
					s2.305-1.032,2.305-2.305C706.717,37.368,705.685,36.336,704.412,36.336z"/>
				<path style="fill:#FFFFFF;" d="M728.748,147.226c-1.273,0-2.305,1.032-2.305,2.305s1.032,2.305,2.305,2.305
					c1.273,0,2.305-1.032,2.305-2.305S730.021,147.226,728.748,147.226z"/>
				<path style="fill:#FFFFFF;" d="M728.748,134.699c-1.273,0-2.305,1.032-2.305,2.305s1.032,2.305,2.305,2.305
					c1.273,0,2.305-1.032,2.305-2.305S730.021,134.699,728.748,134.699z"/>
				<path style="fill:#FFFFFF;" d="M728.748,122.173c-1.273,0-2.305,1.032-2.305,2.305c0,1.273,1.032,2.305,2.305,2.305
					c1.273,0,2.305-1.032,2.305-2.305C731.053,123.205,730.021,122.173,728.748,122.173z"/>
				<path style="fill:#FFFFFF;" d="M728.748,109.646c-1.273,0-2.305,1.032-2.305,2.305c0,1.273,1.032,2.305,2.305,2.305
					c1.273,0,2.305-1.032,2.305-2.305C731.053,110.678,730.021,109.646,728.748,109.646z"/>
				<path style="fill:#FFFFFF;" d="M728.748,97.12c-1.273,0-2.305,1.032-2.305,2.304c0,1.273,1.032,2.305,2.305,2.305
					c1.273,0,2.305-1.032,2.305-2.305C731.053,98.152,730.021,97.12,728.748,97.12z"/>
				<path style="fill:#FFFFFF;" d="M716.58,147.226c-1.273,0-2.305,1.032-2.305,2.305s1.032,2.305,2.305,2.305
					c1.273,0,2.305-1.032,2.305-2.305S717.853,147.226,716.58,147.226z"/>
				<path style="fill:#FFFFFF;" d="M716.58,134.699c-1.273,0-2.305,1.032-2.305,2.305s1.032,2.305,2.305,2.305
					c1.273,0,2.305-1.032,2.305-2.305S717.853,134.699,716.58,134.699z"/>
				<path style="fill:#FFFFFF;" d="M716.58,122.173c-1.273,0-2.305,1.032-2.305,2.305c0,1.273,1.032,2.305,2.305,2.305
					c1.273,0,2.305-1.032,2.305-2.305C718.885,123.205,717.853,122.173,716.58,122.173z"/>
				<path style="fill:#FFFFFF;" d="M716.58,109.646c-1.273,0-2.305,1.032-2.305,2.305c0,1.273,1.032,2.305,2.305,2.305
					c1.273,0,2.305-1.032,2.305-2.305C718.885,110.678,717.853,109.646,716.58,109.646z"/>
				<path style="fill:#FFFFFF;" d="M716.58,97.12c-1.273,0-2.305,1.032-2.305,2.304c0,1.273,1.032,2.305,2.305,2.305
					c1.273,0,2.305-1.032,2.305-2.305C718.885,98.152,717.853,97.12,716.58,97.12z"/>
				<path style="fill:#FFFFFF;" d="M704.412,147.226c-1.273,0-2.305,1.032-2.305,2.305s1.032,2.305,2.305,2.305
					s2.305-1.032,2.305-2.305S705.685,147.226,704.412,147.226z"/>
				<path style="fill:#FFFFFF;" d="M704.412,134.699c-1.273,0-2.305,1.032-2.305,2.305s1.032,2.305,2.305,2.305
					s2.305-1.032,2.305-2.305S705.685,134.699,704.412,134.699z"/>
				<path style="fill:#FFFFFF;" d="M704.412,122.173c-1.273,0-2.305,1.032-2.305,2.305c0,1.273,1.032,2.305,2.305,2.305
					s2.305-1.032,2.305-2.305C706.717,123.205,705.685,122.173,704.412,122.173z"/>
				<path style="fill:#FFFFFF;" d="M704.412,109.646c-1.273,0-2.305,1.032-2.305,2.305c0,1.273,1.032,2.305,2.305,2.305
					s2.305-1.032,2.305-2.305C706.717,110.678,705.685,109.646,704.412,109.646z"/>
				<path style="fill:#FFFFFF;" d="M704.412,97.12c-1.273,0-2.305,1.032-2.305,2.304c0,1.273,1.032,2.305,2.305,2.305
					s2.305-1.032,2.305-2.305C706.717,98.152,705.685,97.12,704.412,97.12z"/>
			</g>
			<g>
				<path style="fill:#FFFFFF;" d="M49.774,346.142L49.774,346.142L49.774,346.142c-0.477,0-0.921,0.145-1.288,0.394
					c-0.613,0.414-1.016,1.115-1.016,1.911s0.403,1.497,1.016,1.911c0.368,0.248,0.811,0.393,1.288,0.393l0,0l0,0
					c0.955,0,1.774-0.58,2.123-1.407c0.117-0.276,0.181-0.579,0.181-0.897c0-0.318-0.064-0.621-0.181-0.897
					C51.548,346.722,50.729,346.142,49.774,346.142z"/>
				<path style="fill:#FFFFFF;" d="M49.774,333.615L49.774,333.615L49.774,333.615c-0.477,0-0.921,0.145-1.288,0.394
					c-0.613,0.414-1.016,1.115-1.016,1.911s0.403,1.497,1.016,1.911c0.368,0.248,0.811,0.394,1.288,0.394l0,0l0,0
					c0.955,0,1.774-0.58,2.123-1.408c0.117-0.276,0.181-0.579,0.181-0.897c0-0.318-0.064-0.621-0.181-0.897
					C51.548,334.196,50.729,333.615,49.774,333.615z"/>
				<path style="fill:#FFFFFF;" d="M49.774,321.089L49.774,321.089L49.774,321.089c-0.477,0-0.921,0.145-1.288,0.394
					c-0.613,0.414-1.016,1.115-1.016,1.911c0,0.796,0.403,1.497,1.016,1.911c0.368,0.248,0.811,0.394,1.288,0.394l0,0l0,0
					c0.955,0,1.774-0.58,2.123-1.408c0.117-0.276,0.181-0.579,0.181-0.897c0-0.318-0.064-0.621-0.181-0.897
					C51.548,321.669,50.729,321.089,49.774,321.089z"/>
				<path style="fill:#FFFFFF;" d="M37.606,346.142c-1.273,0-2.305,1.032-2.305,2.305s1.032,2.304,2.305,2.304
					c1.273,0,2.305-1.032,2.305-2.304S38.879,346.142,37.606,346.142z"/>
				<path style="fill:#FFFFFF;" d="M37.606,333.615c-1.273,0-2.305,1.032-2.305,2.305s1.032,2.305,2.305,2.305
					c1.273,0,2.305-1.032,2.305-2.305S38.879,333.615,37.606,333.615z"/>
				<path style="fill:#FFFFFF;" d="M37.606,321.089c-1.273,0-2.305,1.032-2.305,2.305c0,1.273,1.032,2.305,2.305,2.305
					c1.273,0,2.305-1.032,2.305-2.305C39.91,322.121,38.879,321.089,37.606,321.089z"/>
				<path style="fill:#FFFFFF;" d="M37.606,308.562c-1.273,0-2.305,1.032-2.305,2.305c0,1.273,1.032,2.305,2.305,2.305
					c1.273,0,2.305-1.032,2.305-2.305C39.91,309.594,38.879,308.562,37.606,308.562z"/>
				<path style="fill:#FFFFFF;" d="M25.438,346.142c-1.273,0-2.305,1.032-2.305,2.305s1.032,2.304,2.305,2.304
					c1.273,0,2.304-1.032,2.304-2.304S26.711,346.142,25.438,346.142z"/>
				<path style="fill:#FFFFFF;" d="M25.438,333.615c-1.273,0-2.305,1.032-2.305,2.305s1.032,2.305,2.305,2.305
					c1.273,0,2.304-1.032,2.304-2.305S26.711,333.615,25.438,333.615z"/>
				<path style="fill:#FFFFFF;" d="M25.438,321.089c-1.273,0-2.305,1.032-2.305,2.305c0,1.273,1.032,2.305,2.305,2.305
					c1.273,0,2.304-1.032,2.304-2.305C27.742,322.121,26.711,321.089,25.438,321.089z"/>
				<path style="fill:#FFFFFF;" d="M25.438,308.562c-1.273,0-2.305,1.032-2.305,2.305c0,1.273,1.032,2.305,2.305,2.305
					c1.273,0,2.304-1.032,2.304-2.305C27.742,309.594,26.711,308.562,25.438,308.562z"/>
				<path style="fill:#FFFFFF;" d="M25.438,296.036c-1.273,0-2.305,1.032-2.305,2.305c0,1.273,1.032,2.304,2.305,2.304
					c1.273,0,2.304-1.032,2.304-2.304C27.742,297.068,26.711,296.036,25.438,296.036z"/>
				<path style="fill:#FFFFFF;" d="M74.11,346.142c-1.273,0-2.305,1.032-2.305,2.305s1.032,2.304,2.305,2.304
					c1.273,0,2.304-1.032,2.304-2.304S75.383,346.142,74.11,346.142z"/>
				<path style="fill:#FFFFFF;" d="M61.942,346.142c-1.273,0-2.305,1.032-2.305,2.305s1.032,2.304,2.305,2.304
					c1.273,0,2.305-1.032,2.305-2.304S63.215,346.142,61.942,346.142z"/>
				<path style="fill:#FFFFFF;" d="M61.942,333.615c-1.273,0-2.305,1.032-2.305,2.305s1.032,2.305,2.305,2.305
					c1.273,0,2.305-1.032,2.305-2.305S63.215,333.615,61.942,333.615z"/>
			</g>
			<path style="opacity:0.43;fill:#FFFFFF;" d="M750,452.308c-11.872-3.892-25.845-2.776-37.377,1.533
				c-13.154,4.915-24.653,13.143-36.327,20.729c-12.597,8.186-25.635,15.043-40.377,18.519
				c-30.739,7.249-60.393-0.154-87.135-15.798c-13.04-7.629-25.387-16.358-38.338-24.131c-12.97-7.783-26.413-14.797-40.27-20.891
				c-52.811-23.224-111.965-32.802-168.808-20.038c-27.154,6.098-53.336,17.175-75.969,33.362
				c-11.807,8.444-22.429,18.481-34.732,26.246c-13.297,8.392-28.536,13.035-44.339,12.926
				c-30.232-0.209-54.973-18.813-79.828-33.525c-19.597-11.6-43.2-21.844-66.499-18.831v4.118c19.127-2.63,39.76,4.487,56.41,13.559
				c24.057,13.108,46.295,31.437,73.795,36.987c12.94,2.612,26.437,2.16,39.167-1.338c13.277-3.648,24.773-10.807,35.565-19.131
				c11.541-8.901,22.557-18.286,35.093-25.832c12.286-7.396,25.38-13.422,38.958-18.072c55.275-18.928,115.462-14.566,169.824,5.258
				c27.883,10.168,53.561,24.435,78.369,40.521c24.018,15.574,48.467,29.846,77.829,31.37c14.973,0.777,30.188-1.44,44.269-6.568
				c14.731-5.364,27.382-14.312,40.443-22.723c12.605-8.118,26.017-15.701,41.351-16.556c6.417-0.358,12.995,0.389,18.928,2.559
				V452.308z"/>
			<path style="opacity:0.43;fill:#FFFFFF;" d="M750,23.505c-4.986,1.75-10.314,2.707-15.643,2.964
				c-14.101,0.679-27.639-3.649-40.596-8.659c-13.573-5.248-26.854-11.043-41.147-14.2c-13.085-2.891-26.567-4.034-39.965-3.469
				c-27.483,1.16-53.975,9.602-77.061,24.223c-12.475,7.901-24.034,17.08-36.084,25.572C487.83,58.161,475.586,65.6,462.727,71.91
				c-51.206,25.128-115.201,31.473-165.238-0.067c-21.758-13.715-38.493-34.353-61.819-45.795
				c-25.816-12.663-54.173-7.667-79.977,2.294c-27.421,10.585-52.675,26.363-81.663,32.877c-14.473,3.252-29.793,4.148-44.156-0.126
				C18.3,57.648,8.551,50.892,0,42.769v1.425c2.939,2.764,6.023,5.377,9.314,7.76c10.85,7.855,23.633,12.217,37.081,12.931
				c28.572,1.518,55.78-11.005,80.85-22.912c27.701-13.156,59.279-27.851,90.844-21.056c27.383,5.895,46.425,27.611,67.617,43.869
				c44.84,34.4,105.108,36.4,156.879,16.931c27.666-10.404,51.431-26.504,75.048-43.729c12.057-8.794,24.405-17.265,38.095-23.455
				c13.294-6.011,27.511-10.041,41.999-12.054c14.655-2.036,29.648-2,44.284,0.184c14.717,2.197,28.5,6.932,42.23,12.435
				c20.341,8.154,44.199,17.184,65.76,9.603V23.505z"/>
			<path style="opacity:0.43;fill:#FFFFFF;" d="M750,395.411c-2.131-0.583-4.164-1.387-5.995-2.387
				c-12.146-6.637-20.377-18.855-30.307-28.169c-18.845-17.677-41.473-31.221-65.821-39.886
				c-24.886-8.856-51.661-12.616-78.017-10.423c-27.294,2.271-53.611,10.573-79.12,20.132
				c-52.845,19.801-105.422,45.541-163.486,39.151c-63.62-7.002-118.706-42.872-178.901-61.52
				C100.032,297.338,42.091,294.182,0,327.007v1.255c37.953-30.342,92.879-30.322,138.385-17.828
				c60.801,16.693,115.155,52.621,177.922,62.891c28.243,4.621,56.327,2.441,83.904-4.86c27.148-7.188,53.05-18.211,79.163-28.372
				c26.003-10.117,52.581-19.618,80.359-23.428c27.693-3.798,55.984-1.125,82.564,7.462c26.2,8.465,50.616,22.601,70.693,41.434
				c10.18,9.549,22.401,26.534,37.011,31.156V395.411z"/>
		</g>
		
			<linearGradient id="SVGID_00000181776351186294636080000008506757830349372549_" gradientUnits="userSpaceOnUse" x1="495.8044" y1="121.0243" x2="565.8044" y2="-43.6424">
			<stop  offset="0.0135" style="stop-color:#FFAD69"/>
			<stop  offset="0.5189" style="stop-color:#F834D6"/>
			<stop  offset="1" style="stop-color:#5B00B0"/>
		</linearGradient>
		<path style="fill:url(#SVGID_00000181776351186294636080000008506757830349372549_);" d="M418.936,0
			c-0.393,7.329,5.517,14.083,11.682,17.012c7.643,3.63,16.372,4.104,24.833,4.082c17.554-0.044,35.114-1.979,52.667-0.875
			c15.181,0.955,29.264-0.806,39.943,12.181c8.791,10.69,12.694,24.618,14.364,38.358c0.008,0.063,0.015,0.125,0.023,0.188
			c1.148,9.554-4.451,18.765-13.505,22.025c-16.014,5.765-26.983,17.532-26.983,31.111c0,19.268,22.087,34.889,49.333,34.889
			s49.333-15.62,49.333-34.889c0-14.854-13.128-27.533-31.626-32.563c-8.677-2.36-14.814-10.101-15.486-19.068l-2.568-34.263
			c0.06-7.726,0.632-16.063,5.556-22.017c3.585-4.335,9.006-6.749,14.452-8.159c24.774-6.414,53.094,4.866,75.666-7.191
			c0.477-0.255,0.95-0.532,1.419-0.819H418.936z"/>
		
			<radialGradient id="SVGID_00000171684750794176609580000013454018233128567687_" cx="73.4244" cy="120.9151" r="20.4404" gradientTransform="matrix(0.7618 0.6478 -0.5291 0.6222 81.4655 -1.8828)" gradientUnits="userSpaceOnUse">
			<stop  offset="0.0135" style="stop-color:#FFAD69"/>
			<stop  offset="0.5189" style="stop-color:#F834D6"/>
			<stop  offset="1" style="stop-color:#9100D1"/>
		</radialGradient>
		<path style="fill:url(#SVGID_00000171684750794176609580000013454018233128567687_);" d="M64.178,124.846
			c2.775,4.032,6.538,7.4,9.851,8.869c15.436,6.843,21.939-13.254,11.858-23.347c-4.386-4.392-14.089-9.319-20.27-5.752
			C57.603,109.243,59.467,118.001,64.178,124.846z"/>
		
			<radialGradient id="SVGID_00000128443012716071755500000015906646818307504795_" cx="530.6815" cy="91.2183" r="17.0063" gradientTransform="matrix(0.8384 -0.5451 0.3828 0.5887 50.8659 326.8087)" gradientUnits="userSpaceOnUse">
			<stop  offset="0.0135" style="stop-color:#FFAD69"/>
			<stop  offset="0.5189" style="stop-color:#F834D6"/>
			<stop  offset="1" style="stop-color:#9100D1"/>
		</radialGradient>
		<path style="fill:url(#SVGID_00000128443012716071755500000015906646818307504795_);" d="M516.61,91.532
			c0.157,3.915,4.306,6.774,8.224,6.706c3.918-0.068,7.468-2.328,10.388-4.941c1.948-1.743,3.773-3.759,4.601-6.239
			c2.318-6.943-5.104-10.559-10.955-8.567C524.092,80.117,516.389,86.01,516.61,91.532z"/>
		
			<radialGradient id="SVGID_00000127005283835836617410000004669498857707353272_" cx="611.4999" cy="153.2657" r="13.6872" gradientTransform="matrix(0.966 -0.2584 0.1672 0.6251 -13.3664 208.4766)" gradientUnits="userSpaceOnUse">
			<stop  offset="0.0135" style="stop-color:#FFAD69"/>
			<stop  offset="0.5189" style="stop-color:#F834D6"/>
			<stop  offset="1" style="stop-color:#9100D1"/>
		</radialGradient>
		<path style="fill:url(#SVGID_00000127005283835836617410000004669498857707353272_);" d="M598.287,136.95
			c-5.326,2.72-9.21,7.618-5.802,12.627c2.077,3.052,6.341,4.088,9.899,3.104c3.558-0.984,6.45-3.636,8.588-6.646
			c2.425-3.414,3.652-9.664-1.561-11.045C606.044,134.098,601.313,135.405,598.287,136.95z"/>
		
			<linearGradient id="SVGID_00000068678734441137958660000007442391986075190453_" gradientUnits="userSpaceOnUse" x1="562.384" y1="173.9084" x2="565.884" y2="160.1585">
			<stop  offset="0.0135" style="stop-color:#FFAD69"/>
			<stop  offset="0.5189" style="stop-color:#F834D6"/>
			<stop  offset="1" style="stop-color:#5B00B0"/>
		</linearGradient>
		<path style="fill:url(#SVGID_00000068678734441137958660000007442391986075190453_);" d="M563.909,161.212
			c-4.648-0.238-9.172,1.553-8.823,6.256c0.213,2.865,2.684,5.222,5.466,5.943s5.763,0.058,8.375-1.14
			c2.963-1.359,6.221-5.094,3.244-8.053C570.248,162.306,566.55,161.347,563.909,161.212z"/>
		
			<linearGradient id="SVGID_00000104689972918250170450000010997270184703638677_" gradientUnits="userSpaceOnUse" x1="647.6836" y1="66.57" x2="636.6835" y2="14.2367">
			<stop  offset="0.0135" style="stop-color:#FFAD69"/>
			<stop  offset="0.5189" style="stop-color:#F834D6"/>
			<stop  offset="1" style="stop-color:#5B00B0"/>
		</linearGradient>
		<path style="fill:url(#SVGID_00000104689972918250170450000010997270184703638677_);" d="M649.926,14.509
			c-5.898,3.003-12.578,3.847-19.118,3.999c-6.839,0.159-14.129-2.257-20.835-0.305c-10.159,2.957-13.838,15.849-12.524,25.27
			c1.023,7.334,5.135,14.186,11.125,18.539c7.515,5.462,17.455,6.628,26.481,5.76c13.63-1.31,28.601-5.519,38.17-16.194
			c8.276-9.231,13.637-22.775,9.107-34.971c-1.6-4.307-4.827-8.081-9.046-9.901C664.228,2.802,657.292,10.759,649.926,14.509z"/>
		
			<linearGradient id="SVGID_00000013181191815272307660000000692327654503594164_" gradientUnits="userSpaceOnUse" x1="447.7307" y1="402.0714" x2="487.9349" y2="402.0714">
			<stop  offset="0" style="stop-color:#154296"/>
			<stop  offset="0.2674" style="stop-color:#0E3283"/>
			<stop  offset="0.7303" style="stop-color:#041C67"/>
			<stop  offset="1" style="stop-color:#00135D"/>
		</linearGradient>
		<path style="fill:url(#SVGID_00000013181191815272307660000000692327654503594164_);" d="M447.961,396.913
			c-0.784,4.584,0.454,9.477,3.322,13.138c3.012,3.844,7.535,6.175,12.052,8.033c8.61,3.542,21.923,3.126,24.242-8.133
			C492.098,388.008,452.296,371.556,447.961,396.913z"/>
		
			<linearGradient id="SVGID_00000062878995789827995660000005360046295925117834_" gradientUnits="userSpaceOnUse" x1="92.6484" y1="235.2805" x2="-18.3516" y2="167.2803">
			<stop  offset="0" style="stop-color:#154296"/>
			<stop  offset="0.2674" style="stop-color:#0E3283"/>
			<stop  offset="0.7303" style="stop-color:#041C67"/>
			<stop  offset="1" style="stop-color:#00135D"/>
		</linearGradient>
		<path style="fill:url(#SVGID_00000062878995789827995660000005360046295925117834_);" d="M86.222,193.91
			c-8.305-5.74-19.111-6.68-27.752-11.902c-12.277-7.419-18.071-22.051-21.349-36.016c-3.278-13.965-5.025-28.705-12.492-40.953
			C15.994,90.878,7.656,86.366,0,87.783v186.027c1.433-1.657,2.945-3.231,4.667-4.589c11.47-9.042,27.83-5.989,42.43-6.393
			c17.482-0.484,35.673-7.529,45.44-22.037S100.609,203.855,86.222,193.91z"/>
	</g>
</g>
</svg>
