<?xml version="1.0" encoding="UTF-8"?>
<svg xmlns="http://www.w3.org/2000/svg" viewBox="0 0 356.48 391.38">
  <defs>
    <style>
      .cls-1 {
        fill: #ce9167;
      }

      .cls-2 {
        fill: #ffc9b6;
      }

      .cls-3 {
        fill: #4b4b7f;
      }

      .cls-4 {
        fill: #f7f4f9;
      }

      .cls-5 {
        fill: #fff;
      }

      .cls-6 {
        fill: #c1a7b1;
      }

      .cls-7 {
        fill: #3c89ce;
      }

      .cls-8 {
        fill: #b77d4e;
      }

      .cls-9 {
        fill: #ffe5d9;
      }

      .cls-10 {
        fill: #e2d5da;
      }

      .cls-11 {
        fill: #c9905d;
      }

      .cls-12 {
        fill: #ffb9a4;
      }

      .cls-13 {
        fill: #9cbaf7;
      }

      .cls-14 {
        fill: #d3bcc5;
      }

      .cls-15 {
        fill: #f2e7eb;
      }

      .cls-16, .cls-17 {
        mix-blend-mode: multiply;
        opacity: .5;
      }

      .cls-16, .cls-18 {
        fill: #e0c1ad;
      }

      .cls-19 {
        fill: #373951;
      }

      .cls-20 {
        fill: #e2ac71;
      }

      .cls-17 {
        fill: #7dd0db;
      }

      .cls-21 {
        fill: #a7dde7;
      }

      .cls-22 {
        fill: #474864;
      }

      .cls-23 {
        fill: #7f3b1d;
      }

      .cls-24 {
        fill: none;
        isolation: isolate;
      }

      .cls-25 {
        fill: #d1ad99;
      }

      .cls-26 {
        fill: #ddcad2;
      }

      .cls-27 {
        fill: #628fd1;
      }

      .cls-28 {
        fill: #f4eef0;
      }

      .cls-29 {
        fill: #2c1d1b;
      }

      .cls-30 {
        fill: #f7f0f3;
      }

      .cls-31 {
        fill: #d6c9d4;
      }

      .cls-32 {
        fill: #f9d2c2;
      }

      .cls-33 {
        fill: #e5d6dc;
      }

      .cls-34 {
        fill: #80a8e8;
      }

      .cls-35 {
        fill: #fff4f0;
      }

      .cls-36 {
        fill: #45a0d8;
      }

      .cls-37 {
        fill: #edbcab;
      }

      .cls-38 {
        fill: #a5693d;
      }

      .cls-39 {
        fill: #6d3215;
      }
    </style>
  </defs>
  <g class="cls-24">
    <g id="Layer_1" data-name="Layer 1">
      <g>
        <g>
          <polygon class="cls-1" points="356.31 278.96 178.04 381.88 0 279.48 178.27 175.97 356.31 278.96"/>
          <polygon class="cls-16" points="245.6 339.06 184.49 375.15 25.18 283.74 86.28 247.07 245.6 339.06"/>
          <polygon class="cls-16" points="301.2 294.41 240.09 330.49 80.78 239.09 141.88 202.42 301.2 294.41"/>
          <polygon class="cls-25" points="0 279.48 0 288.98 178.04 391.38 178.04 381.88 0 279.48"/>
          <polygon class="cls-18" points="356.31 288.46 356.48 278.85 178.04 381.88 178.04 391.38 356.31 288.46"/>
        </g>
        <g>
          <g>
            <polygon class="cls-33" points="6.95 283.17 178.92 183.99 178.92 7.7 6.95 106.97 6.95 283.17"/>
            <polygon class="cls-14" points="6.95 106.97 0 103.29 0 279.48 6.95 283.17 6.95 106.97"/>
            <polygon class="cls-15" points="178.92 0 178.92 7.7 6.95 106.97 0 103.29 178.92 0"/>
          </g>
          <g>
            <polygon class="cls-33" points="349.53 106.34 356.48 102.65 356.48 278.85 349.53 282.53 349.53 106.34"/>
            <polygon class="cls-13" points="349.53 282.53 178.92 183.99 178.92 7.7 349.53 106.34 349.53 282.53"/>
            <polygon class="cls-15" points="178.92 0 172.25 3.85 349.53 106.34 356.48 102.65 178.92 0"/>
          </g>
        </g>
        <g>
          <g>
            <polygon class="cls-26" points="206.49 36.23 206.49 143.36 257.39 172.67 257.39 179.92 199.94 146.83 199.94 32.45 206.49 36.23"/>
            <g>
              <polygon class="cls-5" points="212.15 39.5 257.39 65.54 257.39 163.56 212.15 137.53 212.15 39.5"/>
              <polygon class="cls-33" points="211.58 39.17 211.58 137.19 257.39 163.56 257.39 172.67 206.49 143.36 206.49 36.23 211.58 39.17"/>
              <polygon class="cls-30" points="211.58 39.17 213.88 40.49 213.88 136.15 257.39 161.2 257.39 163.56 211.58 137.19 211.58 39.17"/>
            </g>
          </g>
          <path class="cls-30" d="m257.39,170.1l-51.12-29.45-6.33,3.14s-1.26.6-2.57,1.31c-1.31.71-1.94,2.16-2.02,4.25,1.01.65,44.33,25.59,57.39,33.12.18-1.73,4.65-3.14,4.65-3.14v-9.23Z"/>
          <path class="cls-14" d="m252.75,182.47l4.65-2.53v-3.4s-3.74,1.47-4.46,2.96c-.72,1.49-.19,2.96-.19,2.96Z"/>
          <polygon class="cls-14" points="211.58 39.17 213.88 40.49 213.88 136.15 211.58 137.19 211.58 39.17"/>
        </g>
        <polygon class="cls-34" points="111.54 174.7 93.17 185.3 93.17 90.89 111.54 80.28 111.54 174.7"/>
        <polygon class="cls-34" points="127.86 177.15 109.48 187.76 109.48 93.34 127.86 82.73 127.86 177.15"/>
        <polygon class="cls-34" points="95.47 169.44 77.1 180.04 77.1 123.23 95.47 112.62 95.47 169.44"/>
        <g>
          <g>
            <path class="cls-13" d="m113.88,83.88c0-1.65-1-3.57-2.24-4.28-.47-.27-.91-.33-1.27-.21l-16.47,9.63,3,6.15,16.03-9.4c.57-.21.95-.88.95-1.89Z"/>
            <path class="cls-27" d="m93.23,90.77c0,1.65,1,3.57,2.24,4.28,1.24.71,2.24-.04,2.24-1.69s-1-3.57-2.24-4.28c-1.24-.71-2.24.04-2.24,1.69Z"/>
          </g>
          <path class="cls-38" d="m120.44,110.63c-2.65-3.95-4.94-7.66-4.94-7.66l-2.94,1.73s2.36,3.67,4.77,7.77c1.59,2.71,2.77,3.19,3.83,2.58.86-.49,1.28-1.45-.72-4.42Z"/>
          <path class="cls-8" d="m115.5,103c.22.37-.27,1.06-1.08,1.53-.81.47-1.65.55-1.86.17-.22-.37.27-1.06,1.08-1.53.81-.47,1.65-.55,1.86-.17Z"/>
          <path class="cls-28" d="m113.59,104.03l-1.78-2.72c-2.78-4.26-2.93-4.17-5.22-2.69-.28.18-.58.37-.91.58-.79.49-1.5.94-2.14,1.35-3.59,2.3-5.38,3.45-7.41.38l-.73-1.1c-.97-1.47-1.6-2.42-2.4-3.7-.52-.83-.7-1.49-.55-2.09.21-.88,1.06-1.4,2.06-2,.33-.2.68-.41,1.04-.65.21-.15.51-.09.65.13.15.22.09.51-.13.66-.37.25-.74.47-1.08.68-.84.51-1.5.91-1.62,1.41-.08.33.06.78.43,1.37.8,1.27,1.42,2.22,2.39,3.68l.73,1.1c1.45,2.21,2.31,1.77,6.11-.66.64-.41,1.35-.87,2.15-1.36.33-.2.62-.39.9-.57,2.78-1.79,3.45-1.73,6.52,2.97l1.78,2.72-.79.52Z"/>
        </g>
        <polygon class="cls-16" points="308.83 267.9 268.35 290.7 231.29 269.3 271.77 246.5 308.83 267.9"/>
        <path class="cls-21" d="m299.58,287.75c-3.76.02-8.47-.57-12.34-3-.13-.08-.28-.17-.42-.26-11.61-7.26-29.73-17.06-47.15-27.08-31.19-17.95-65.89-37.93-84.72-48.76-1.54-.89-2.99-1.72-4.31-2.48-1.1-.63-2.2-2.14-3.06-3.54-.95-1.55-1.59-2.97-1.59-2.97l-58.04,33.51s.51,1.32,1.62,2.96c.91,1.34,2.2,2.88,4.02,4.12,1,.68,2.12,1.29,3.3,1.93.55.3,1.12.61,1.69.94,28.82,16.59,97.09,55.75,129.55,74.56.41.24.83.48,1.23.71,3.89,2.26,7.27,3.25,10.06,3.59,4.85.58,7.91-.88,8.74-1.37l58.04-33.51s-2.82.64-6.6.66Z"/>
        <path class="cls-21" d="m242.72,332.48c-3.76.02-8.47-.57-12.34-3-.13-.08-.28-.17-.42-.26-11.61-7.26-29.73-17.06-47.15-27.08-31.19-17.95-65.89-37.93-84.72-48.76-1.54-.89-2.99-1.72-4.31-2.48-1.1-.63-2.2-2.14-3.06-3.54-.95-1.55-1.59-2.97-1.59-2.97l-58.04,33.51s.51,1.32,1.62,2.96c.91,1.34,2.2,2.88,4.02,4.12,1,.68,2.12,1.29,3.3,1.93.55.3,1.12.61,1.69.94,28.82,16.59,97.09,55.75,129.55,74.56.41.24.83.48,1.23.71,3.89,2.26,7.27,3.25,10.06,3.58,4.85.58,7.91-.88,8.74-1.37l58.04-33.51s-2.82.64-6.6.66Z"/>
        <polygon class="cls-17" points="283.43 282.28 268.35 290.7 231.29 269.3 246.06 261.05 283.43 282.28"/>
        <path class="cls-17" d="m137.26,244.98c-5.11,4.1,3.42,9.78,10.11,12.7,10.55,4.62,19.32,1.9,31.55-5.03,16.15-9.15,29.56-13.21,12.07-21.43-10.05-4.73-16.84-1.84-25.38,2.71-8.55,4.54-21.45,5.52-28.34,11.05Z"/>
        <g>
          <path class="cls-2" d="m183.6,127.29s3.53,6.92,5.42,9.94c1.9,3.02,1.98,4.54,1.29,8.27-.69,3.74-1.98,10.43-2.67,13.47.93,2.23,2.84,3.42,1.46,6.16,1.38,0,2.23.98,1.72,2.09-1.55,3.37-5.08,4.01-7.23,2.98-2.16-1.03-1.02-6.8-1.17-8.38-.22-2.38-.44-8.16-1.25-12.54-.86-4.6.26-7.05.26-7.05l-4.34-11.64,6.5-3.32Z"/>
          <path class="cls-39" d="m151.47,235.13c.26,4.1,1.25,9.68-.35,9.73-2.77-.95-5.4-2.47-7.78-1.02-2.5,1.52-2.68,3.81-2.08,6.07.83,1.07,2.4,2.69,4.6,3.75,3.09,1.49,7.01,2.29,8.37,2.49,1.99,1.19,4.77,2.13,6.84,1.04,2.12-1.11,3.19-2.05,2.56-4.39-1.05-3.91-.54-4.14.83-10.7.76-3.61-13.19-10.31-12.97-6.97Z"/>
          <path class="cls-29" d="m150.25,228c1.09-2,4.64-1.92,9.11-.5,4.48,1.41,6.12,2.04,6.19,3.38.07,1.34.64,4.87-4.94,4.48-5.58-.39-9.69-3.44-10.06-4.71-.37-1.27-.31-2.64-.31-2.64Z"/>
          <path class="cls-31" d="m174.16,139.21c4.96-.64,9.83-2.03,13.49-5.34-.87-1.42-1.66-5.2-1.99-6.58-1.2-5.09-2.34-9.02-6.67-12.14-5.49-3.97-10.06,1.64-13.94,4.2-.02.02-.05.03-.07.06-.86,1.2-.74,2.67-.42,4.14.06.6,2.7,9.54,4.72,12.48,1.04,1.51,2.8,2.53,4.87,3.19Z"/>
          <path class="cls-12" d="m164.88,106.94c1.26,3.05,7.09,14.31,7.09,14.31l-13.27,6.65s-.42-9.38-3.06-15.7c-2.64-6.32,9.25-5.25,9.25-5.25Z"/>
          <path class="cls-39" d="m194.76,233.23c1.37-6.31-.16-17.14-1.59-20.54-4.51,0-10.34,1.45-13.3,3.75,1.03,3.72,1.41,4.75,2.06,7.43.37,1.52.81,3.01,1.31,4.49.75,2.24.56,2.29-1.76,2.23-3.51-.1-6.77.58-6.78,4.5,0,.98,2.24,3.74,3.17,4.29,4.96,2.95,8.08,1.59,10.09,1.1,1.71,1.48,5.74.18,8.13-2.03.79-.73-.47-4.31-1.33-5.21Z"/>
          <path class="cls-7" d="m157.86,159.12c.86-2.26,1.27-3.01,3.67-3.14,2.49-.14,4.99.36,7.51.13,3.7-.33,7.13-1.38,10.58-2.68,1.39-.52,3.6,6.57,4.01,10.06.56,4.82-.06,6.58-.77,11.16,1.87,4.58,3.42,13.05.89,19.3,3.81,4.28,8.05,11.5,10.07,17.14,2.63,7.34,2.26,16.22,2.32,18.68.2,4.09-10.62,3.64-13.7,0-2.43-8.37-12.38-27.61-14.4-31.29-2.79-5.09-3.93-8.69-6.54-13.88-2.01-4-4.74-8.16-5.46-12.65-.66-4.14.34-8.97,1.81-12.83Z"/>
          <path class="cls-36" d="m153.49,165.09c1.36-2.48,20.83-4.48,20.58-4.36.97,3.85,6.42,14.38-1.8,18.74-.27,1.7-5.7,21.28-9.3,27.86.82,4.24,2.18,5.5.57,11.04.59,1.26,1.87,5.69,2.06,10.23.34,8.47-1.11,18.65-2.2,20.1-2.43,3.24-12.06,1.95-12.29-3.84-.44-4.69-5.2-38.36-5.86-47.41,2.27-13.84,4.06-24.76,8.23-32.36Z"/>
          <path class="cls-7" d="m178.49,164.4s-2.76,4.5-11.9,5.61c-9.14,1.11-14.16-2.8-14.16-2.8l1.06-2.12s9.98,2.27,16.17-.23c6.19-2.51,8.2-3.02,8.2-3.02l.63,2.57Z"/>
          <path class="cls-7" d="m150.93,159.61c-.78-1.54,4.32-2.82,4.32-2.82l1.33,3.6s-4.15,2.16-5.65-.78Z"/>
          <path class="cls-4" d="m151.27,126.06c1.91-1.2,14.19-11.19,22.1-10.1,4.98.68,7.42,10.53,7.9,15.67.31,3.31-.1,18.82.21,21.56.4.68,1.43,2.35.23,3.27,1.51,1.54.41,2.35-1.09,3.94-1.55,1.65-11.24,6.84-15.7,6.84-6.22,0-10.36-.09-11.97-1.29-1.13-.84-.57-2.61.45-3.47-.58-3.26-4.52-8.43-5.08-11.47-1.13-6.24-2.91-10.68-3.23-17.06-.25-5.03,2.56-5.61,6.17-7.88Z"/>
          <path class="cls-31" d="m171.97,116.29s-.36,1.24-3.86,3.04c-3.51,1.8-10.11,3.55-10.11,3.55v-.75s3.68-2.46,7.46-4.34c3.78-1.89,4.97-1.69,4.97-1.69l1.54.2Z"/>
          <path class="cls-2" d="m150.82,103.29c.77-3.77,2.49-6.98,6.19-7.87,3.52-.85,7.5.67,9.84,3.58,2.88,3.57,2,7.51-.54,10.98-1.5,2.06-3.79,3.89-5.38,4.72-2.07,1.09-6.13,2.72-8.45-.54-2.14-3.01-2.37-7.45-1.67-10.87Z"/>
          <path class="cls-39" d="m151.36,97.32c1.3-.23.79-1.42,1.96-2.11,2.59-1.51,6.45-1.84,9.32-1.24,5.88,1.23,9.38,4.24,7.06,8.93.45,2.41-1.54,8.62-1.05,11.84-4.3.99-7.48-1.19-8.58-5.28-2.4.41-6.85-4.21-5.67-6.32-4.38,1.01-4.57-5.57-3.04-5.83Z"/>
          <path class="cls-2" d="m153.72,106.02s1.86-2.54,3.51.63c1.36,2.62-1.99,3.57-1.99,3.57l-1.52-4.2Z"/>
          <path class="cls-7" d="m158.56,102.19s-4.36,3.89-11.29-.61c-6.93-4.5-.82-9.36,3.98-8.75,4.8.61,7.31,2.87,7.31,2.87v6.49Z"/>
          <path class="cls-36" d="m151.36,97.32c.55-6.13,9.33-9.6,16.04-4.86,3.67,2.59,5.67,8.1,2.11,13.97-.81,2.36-16.69,1.58-18.15-9.11Z"/>
          <path class="cls-7" d="m163.44,91.75c-.23.48.3,1.21,1.19,1.63.88.42,1.79.38,2.02-.1.23-.48-.3-1.21-1.19-1.63-.88-.42-1.79-.38-2.02.1Z"/>
          <path class="cls-2" d="m140,130.73c.49,1.87.11,3.26-1.17,4.18-1.28.92-5-.08-4.08-2.44-.94-.71-.13-1.61.23-2.57-.39-1.33.44-2.59,1.3-2.4,2.41.52,3.23,1.36,3.72,3.23Z"/>
          <path class="cls-7" d="m160.97,208.61s-2.18,1.43-4.3,1.07c-2.12-.36-2.95-1.55-2.95-1.55,0,0,2.23-.24,3.62,0,1.39.24,3.62.48,3.62.48Z"/>
          <path class="cls-7" d="m160.16,206.66s-3.02-2.14-4.4-2.46c-1.38-.31-2.46-.5-2.46-.5,0,0,1.77,1.39,3.07,2.03,1.3.65,3.79.92,3.79.92Z"/>
          <path class="cls-36" d="m180.03,133.42l2.41,8.15s.08,8.86-.39,11.84c.47,1.14,1.25,1.38.39,2.71,1.8.07,1.2,1.84.33,3.27-1.76,2.92-4.31,4.43-7.2,5.96-2.89,1.53-12.37,3.85-16.01,2.94-3.64-.91-8.11-1.96-7.79-3.7.32-1.75.27-2.32.27-2.32l-1.11-2.66s3.89,1.61,8.63-.66c2.87-1.37,8.11-7.93,6.71-18.71,5.56-1.58,13.76-6.82,13.76-6.82Z"/>
          <path class="cls-36" d="m169.36,141.36c-.3-.19-1.94-7.99-4.76-13.47-2.28-4.43-4.94-6.4-6.54-6.13-2.22.37-2.81,2.11-2.81,2.11,0,0,2.66-.65,5.21,2.52,2.55,3.17,5.96,13.81,6,15.88.04,2.07,2.9-.91,2.9-.91Z"/>
          <path class="cls-36" d="m169.68,116.79c.7.59,2.49,1.6,4.56,6.43,1.33,3.1,4.09,12.75,4.09,12.75l2-1.39s-1.77-7.06-3.77-11.73c-2-4.68-3.71-6.27-5.03-7.11-.71-.45-1.86-.18-2.3.17.17.47.45.89.45.89Z"/>
          <path class="cls-7" d="m168.1,164.47s-3.04,1.64-5.8,1.54c-2.74-.1-5.39-1.46-5.39-1.46,0,0,3.43-.48,5.02-.23,1.59.25,6.17.15,6.17.15Z"/>
          <path class="cls-2" d="m113.65,111.88c-1.07-.95-3.87-5.09-.49-6.25.31.3.64,1.19,1.55,1.19.79,0,1.94-.82,2.37-1.35,0,0-.59-.94-.83-1.32.19-.08,1.8-1.03,2.82-.34,1.23.84,2.35,3.22,2.74,5.5.2,1.22,4.34,9.26,5.54,10.52,2.72,2.85,3.38,5.49,3.38,5.49,0,0,10.56,2.54,14.15,4.21,2.93,1.36,4.4,3.13,4.4,3.13l-1.24,12.02s-3.96-2.31-9.89-4.42c-1.02-.36-6.94-1.74-11.52-5.57-1.96-.66-1.73-.83-2.02-2.01-2-1.9-1.95-3.1-4.21-8.91-1.24-3.19-2.84-10.52-2.84-10.52-1.61.24-2.07.24-3.9-1.38Z"/>
          <path class="cls-31" d="m140.21,127.18c2.12.19,4.6-.19,5.06.74,3.41-1.72,7.12-2.68,9.99-.03,4.4,4.06,5.49,14.78.51,19.25-3.28,2.94-6.01,2.17-9.88-2.24-1.52-.61-5.28-1.84-8.63-3.35-3.27-5.27-.97-11.39,2.95-14.37Z"/>
        </g>
        <g>
          <g>
            <path class="cls-19" d="m264.9,248.32v2.21c0,1.18.97,2.14,2.14,2.14s2.14-.97,2.14-2.14v-2.21h-4.29Z"/>
            <path class="cls-22" d="m269.19,248.32c0,.67-.96,1.22-2.14,1.22s-2.14-.54-2.14-1.22.96-1.22,2.14-1.22,2.14.54,2.14,1.22Z"/>
            <path class="cls-10" d="m268.37,248.13c0,.42-.6.76-1.33.76s-1.33-.34-1.33-.76.6-.76,1.33-.76,1.33.34,1.33.76Z"/>
            <path class="cls-5" d="m268.37,248.13v-69.13c0-.73-.6-1.33-1.33-1.33s-1.33.6-1.33,1.33v69.13h2.67Z"/>
          </g>
          <g>
            <path class="cls-19" d="m237.9,266.42l-.53,2.14c-.28,1.14.42,2.31,1.56,2.6,1.14.28,2.31-.42,2.6-1.56l.53-2.14-4.16-1.04Z"/>
            <path class="cls-22" d="m242.06,267.46c-.16.65-1.23.95-2.38.66-1.15-.29-1.95-1.05-1.79-1.7.16-.65,1.23-.95,2.37-.66,1.15.29,1.95,1.05,1.79,1.7Z"/>
            <path class="cls-28" d="m241.11,267.2c-.09.35-.65.51-1.27.35-.61-.15-1.04-.56-.95-.91.09-.35.65-.51,1.27-.35.61.15,1.04.56.95.91Z"/>
          </g>
          <path class="cls-28" d="m280.39,153.49c2.3-.9,5.1-.47,8.09,1.26l6.94,3.77c6.29,3.63,8.32,10.15,5.87,18.81l-.21.66c.86-.22,1.73-.43,2.6-.62,2.46-9.4-.04-16.8-7.1-20.87l-6.94-3.77c-3.62-2.09-7.12-2.58-10.1-1.41-3.27,1.28-5.8,4.53-7.31,9.4l-33.34,105.93c.71.31,1.22-.02,2.22.55l33.35-105.79c1.29-4.17,3.34-6.91,5.93-7.92Z"/>
          <g>
            <polygon class="cls-33" points="270 259.71 241.09 243.01 252.58 236.38 281.5 253.07 270 259.71"/>
            <polygon class="cls-14" points="241.09 243.01 241.09 245.61 270 262.3 270 259.71 241.09 243.01"/>
            <polygon class="cls-6" points="281.5 253.07 281.5 255.67 270 262.3 270 259.71 281.5 253.07"/>
          </g>
          <g>
            <polygon class="cls-33" points="275.75 241.47 246.84 224.77 258.33 218.14 287.24 234.83 275.75 241.47"/>
            <polygon class="cls-14" points="246.84 224.77 246.84 227.37 275.75 244.06 275.75 241.47 246.84 224.77"/>
            <polygon class="cls-6" points="287.24 234.83 287.24 237.43 275.75 244.06 275.75 241.47 287.24 234.83"/>
          </g>
          <g>
            <polygon class="cls-33" points="281.5 222.22 252.58 205.53 264.08 198.89 292.99 215.58 281.5 222.22"/>
            <polygon class="cls-14" points="252.58 205.53 252.58 208.12 281.5 224.82 281.5 222.22 252.58 205.53"/>
            <polygon class="cls-6" points="292.99 215.58 292.99 218.18 281.5 224.82 281.5 222.22 292.99 215.58"/>
          </g>
          <g>
            <polygon class="cls-33" points="285.1 205.25 256.18 188.56 277.63 176.27 306.55 192.97 285.1 205.25"/>
            <polygon class="cls-14" points="256.18 188.56 256.18 191.16 285.1 207.85 285.1 205.25 256.18 188.56"/>
            <polygon class="cls-6" points="306.55 192.97 306.55 195.56 285.1 207.85 285.1 205.25 306.55 192.97"/>
          </g>
          <g>
            <path class="cls-19" d="m266.71,283.04l-.53,2.14c-.28,1.14.42,2.31,1.56,2.6,1.14.28,2.31-.42,2.6-1.56l.53-2.14-4.16-1.04Z"/>
            <path class="cls-22" d="m270.88,284.08c-.16.65-1.23.95-2.37.66-1.15-.29-1.95-1.05-1.79-1.7.16-.65,1.23-.95,2.37-.66,1.15.29,1.95,1.05,1.79,1.7Z"/>
            <path class="cls-28" d="m269.93,283.82c-.09.35-.65.51-1.27.35-.61-.15-1.04-.56-.95-.91.09-.35.65-.51,1.27-.35.61.15,1.04.56.95.91Z"/>
          </g>
          <path class="cls-28" d="m297.74,157.23c-.5.6-1,1.2-1.5,1.81,5.64,3.72,7.39,10.02,5.05,18.29l-33.53,105.85c.72.29,1.45.3,2.15.7l33.61-105.88c2.59-9.16.53-16.47-5.79-20.77Z"/>
          <g>
            <path class="cls-19" d="m295.01,266.65v2.21c0,1.18.96,2.14,2.14,2.14s2.14-.97,2.14-2.14v-2.21h-4.29Z"/>
            <ellipse class="cls-22" cx="297.16" cy="266.65" rx="2.14" ry="1.22"/>
            <path class="cls-5" d="m298.49,266.46c0,.42-.6.76-1.33.76s-1.33-.34-1.33-.76.6-.76,1.33-.76,1.33.34,1.33.76Z"/>
            <path class="cls-5" d="m298.49,266.46v-69.13c0-.73-.6-1.33-1.33-1.33s-1.33.6-1.33,1.33v69.13h2.67Z"/>
          </g>
          <path class="cls-3" d="m298.19,199.98c0,.5-.3,1.08-.68,1.3-.38.22-.68-.01-.68-.51s.3-1.08.68-1.3c.38-.22.68.01.68.51Z"/>
        </g>
        <path class="cls-17" d="m89.68,270.67c9.62,0,17.42,3.95,17.42,8.82s-7.8,8.82-17.42,8.82-17.42-3.95-17.42-8.82,7.8-8.82,17.42-8.82Z"/>
        <path class="cls-34" d="m120.71,277.48c-2.4-1.47-5.41-2.04-8.43-1.99-.03-.73-.28-1.5-.74-2.14-2.97-4.11-10.19-3.53-14.43-2.62-4.34.93-9.43,3.23-10.08,8.22,0,0,0,.02,0,.03-.82.73-1.49,1.63-1.88,2.76-.76,2.2-.13,4.44,1.73,5.85,3.79,2.87,10.86,2.58,16.05.67,1.15.83,2.85,1.45,3.61,1.65,4.78,1.31,10.57.31,14.37-2.99,3.17-2.75,3.64-7.1-.2-9.45Z"/>
        <path class="cls-17" d="m135.39,288.31c11.18,0,20.24,4.58,20.24,10.24s-9.06,10.24-20.24,10.24-20.24-4.58-20.24-10.24,9.06-10.24,20.24-10.24Z"/>
        <g>
          <path class="cls-9" d="m72.27,250.19l1.64,28.31c0,4.41,7.07,7.99,15.79,7.99s15.78-3.58,15.78-7.99l1.64-28.31h-34.85Z"/>
          <path class="cls-37" d="m96.67,271.14c-.94,0-1.92-.08-2.93-.25-9.74-1.61-16.84-9.8-17.14-10.15-.23-.26-.2-.66.07-.89.27-.23.66-.2.89.07.07.08,7.11,8.19,16.39,9.72,3.62.6,6.74.04,9-1.62,2.26-1.66,3.68-4.37,4.21-8.06.78-5.41-1.53-11.07-1.55-11.13-.13-.32.02-.69.34-.82.32-.13.69.02.82.34.1.24,2.46,6.03,1.63,11.79-.58,4.04-2.17,7.03-4.71,8.9-1.89,1.39-4.29,2.1-7.02,2.1Z"/>
          <path class="cls-37" d="m107.95,252.41l-.65-.75s-9.21-6.28-17.62-6.28-17.59,6.28-17.59,6.28l-.68.75v2.39c.21,5.02,8.31,9.07,18.27,9.07s18.06-4.07,18.3-9.07l-.03-2.39Z"/>
          <path class="cls-32" d="m89.68,243.17c-10.09,0-18.27,4.14-18.27,9.24s8.18,9.24,18.27,9.24,18.27-4.14,18.27-9.24-8.18-9.24-18.27-9.24Z"/>
          <path class="cls-9" d="m72.27,250.19c0,.48.1,1.74.11,1.86.39,4.68,8.01,8.42,17.36,8.42,8.86,0,16.16-3.36,17.23-7.69l.15-2.59c-.04-.32-34.85,0-34.85,0Z"/>
          <path class="cls-35" d="m89.7,241.37c-9.62,0-17.43,3.95-17.43,8.82s7.8,8.82,17.43,8.82,17.43-3.95,17.43-8.82-7.8-8.82-17.43-8.82Z"/>
          <g>
            <path class="cls-32" d="m89.7,245.02c8.01,0,14.64,2.81,15.96,6.51.16-.44.25-.89.25-1.35,0-4.34-7.26-7.86-16.21-7.86s-16.21,3.52-16.21,7.86c0,.46.1.91.25,1.35,1.32-3.7,7.95-6.51,15.96-6.51Z"/>
            <path class="cls-34" d="m89.7,258.04c8.01,0,14.64-2.81,15.96-6.51-1.32-3.7-7.95-6.51-15.96-6.51s-14.64,2.81-15.96,6.51c1.32,3.7,7.95,6.51,15.96,6.51Z"/>
          </g>
        </g>
        <path class="cls-34" d="m133.34,232.15c-5.49-4.04-18.64.19-19.5,4.79-1.27,6.84,10.25,6.74,14.21,5.85,4.7-1.06,11.39-6.14,5.29-10.63Z"/>
        <path class="cls-34" d="m137.48,227.92c-3.02-2.23-10.28.1-10.75,2.64-.7,3.77,5.65,3.71,7.83,3.22,2.59-.59,6.28-3.39,2.92-5.86Z"/>
        <g>
          <path class="cls-37" d="m153.67,295.28l-.65-.75s-9.21-6.28-17.62-6.28-17.59,6.28-17.59,6.28l-.68.75v2.39c.21,5.02,8.31,9.07,18.27,9.07s18.06-4.07,18.3-9.07l-.03-2.39Z"/>
          <path class="cls-35" d="m135.41,286.03c-10.09,0-18.27,4.14-18.27,9.24s8.18,9.24,18.27,9.24,18.27-4.14,18.27-9.24-8.18-9.24-18.27-9.24Z"/>
          <g>
            <path class="cls-37" d="m135.42,287.48c9.06,0,16.43,3.62,16.81,8.16.01-.12.04-.24.04-.36,0-4.71-7.54-8.52-16.84-8.52s-16.84,3.81-16.84,8.52c0,.12.03.24.04.36.38-4.54,7.74-8.16,16.81-8.16Z"/>
            <path class="cls-32" d="m135.42,303.8c9.06,0,16.43-3.62,16.81-8.16-.38-4.54-7.74-8.16-16.81-8.16s-16.43,3.62-16.81,8.16c.38,4.54,7.74,8.16,16.81,8.16Z"/>
          </g>
        </g>
        <g>
          <polygon class="cls-39" points="129.65 287.54 122.77 283.57 118.65 285.95 118.66 285.44 116.05 285.77 116.05 287.45 122.84 291.37 122.84 287.54 129.65 287.54"/>
          <rect class="cls-11" x="142.04" y="297.41" width="2.85" height="1.67"/>
          <path class="cls-11" d="m143.82,297.64c-2.01-1.36-4.95-2-8.14-3.71-3.06-1.63-3.97-3.66-4.04-3.83.04-.14.05-.29.04-.43l-2.02-2.12h-6.81v3.83l.72.42c.72.42,1.59.7,2.48.76.43.03,1.56.08,2.11.19,1.29.26,3.74.9,5.8,2.18,2.95,1.84,4.07,3.54,6.42,4.7,2.11,1.04,3.74.51,4.03.34.25-.15,1.22-1.11-.59-2.33Z"/>
          <polygon class="cls-23" points="122.77 281.89 116.05 285.77 122.84 289.69 129.56 285.81 122.77 281.89"/>
          <path class="cls-20" d="m143.82,295.94c-2.01-1.36-4.95-2-8.14-3.71-2.42-1.29-3.5-2.85-3.88-3.52-.07-.12-.1-.39-.12-.61,0-.08-.1-.52-.14-.62-.2-.44-.61-.87-1.24-1.24l-.72-.42-6.72,3.88.72.42c.86.49,1.93.76,2.98.79.12,0,1.04.02,1.57.13,1.27.26,3.76.89,5.85,2.19,2.95,1.84,4.07,3.54,6.42,4.7,2.11,1.04,3.74.51,4.03.34.25-.15,1.22-1.11-.59-2.33Z"/>
          <polygon class="cls-39" points="117.09 285.17 123.62 288.78 117.83 284.75 117.09 285.17"/>
          <polygon class="cls-39" points="119.91 283.53 126.44 287.15 120.65 283.11 119.91 283.53"/>
          <polygon class="cls-39" points="118.52 284.35 125.05 287.96 119.26 283.92 118.52 284.35"/>
          <polygon class="cls-39" points="121.38 282.69 127.91 286.31 122.12 282.27 121.38 282.69"/>
        </g>
        <g>
          <polygon class="cls-14" points="235.19 52.76 237.49 54.08 237.49 149.47 235.19 150.51 235.19 52.76"/>
          <polygon class="cls-33" points="235.19 52.76 232.06 50.96 232.06 149.38 235.19 151.64 235.19 52.76"/>
        </g>
      </g>
    </g>
  </g>
</svg>